solid OpenSCAD_Model
  facet normal 1 0 0
    outer loop
      vertex 20 1 22
      vertex 20 0 22
      vertex 20 1 12
    endloop
  endfacet
  facet normal 1 -0 0
    outer loop
      vertex 20 1 12
      vertex 20 2 0
      vertex 20 2 12
    endloop
  endfacet
  facet normal 1 0 0
    outer loop
      vertex 20 0 0
      vertex 20 1 12
      vertex 20 0 22
    endloop
  endfacet
  facet normal 1 0 0
    outer loop
      vertex 20 1 12
      vertex 20 0 0
      vertex 20 2 0
    endloop
  endfacet
  facet normal -0 0 1
    outer loop
      vertex 0 1 22
      vertex 20 0 22
      vertex 20 1 22
    endloop
  endfacet
  facet normal 0 0 1
    outer loop
      vertex 20 0 22
      vertex 0 1 22
      vertex 0 0 22
    endloop
  endfacet
  facet normal 0 0 -1
    outer loop
      vertex 0 0 2
      vertex 18 2 2
      vertex 18 0 2
    endloop
  endfacet
  facet normal -0 0 -1
    outer loop
      vertex 18 2 2
      vertex 0 0 2
      vertex 0 2 2
    endloop
  endfacet
  facet normal -1 0 0
    outer loop
      vertex 0 2 2
      vertex 0 1 3
      vertex 0 2 3
    endloop
  endfacet
  facet normal -1 0 0
    outer loop
      vertex 0 0 2
      vertex 0 1 3
      vertex 0 2 2
    endloop
  endfacet
  facet normal -1 0 0
    outer loop
      vertex 0 0 22
      vertex 0 1 3
      vertex 0 0 2
    endloop
  endfacet
  facet normal -1 0 0
    outer loop
      vertex 0 1 3
      vertex 0 0 22
      vertex 0 1 22
    endloop
  endfacet
  facet normal 0 1 0
    outer loop
      vertex 18 1 12
      vertex 20 1 22
      vertex 20 1 12
    endloop
  endfacet
  facet normal 0 1 0
    outer loop
      vertex 20 1 22
      vertex 18 1 12
      vertex 0 1 22
    endloop
  endfacet
  facet normal 0 1 0
    outer loop
      vertex 0 1 3
      vertex 18 1 12
      vertex 18 1 3
    endloop
  endfacet
  facet normal 0 1 0
    outer loop
      vertex 18 1 12
      vertex 0 1 3
      vertex 0 1 22
    endloop
  endfacet
  facet normal 0 -1 0
    outer loop
      vertex 18 0 2
      vertex 0 0 22
      vertex 0 0 2
    endloop
  endfacet
  facet normal 0 -1 0
    outer loop
      vertex 0 0 22
      vertex 18 0 2
      vertex 20 0 22
    endloop
  endfacet
  facet normal 0 -1 0
    outer loop
      vertex 20 0 0
      vertex 18 0 2
      vertex 18 0 0
    endloop
  endfacet
  facet normal 0 -1 0
    outer loop
      vertex 18 0 2
      vertex 20 0 0
      vertex 20 0 22
    endloop
  endfacet
  facet normal 1 0 0
    outer loop
      vertex 20 24 22
      vertex 20 23 22
      vertex 20 24 12
    endloop
  endfacet
  facet normal 1 -0 0
    outer loop
      vertex 20 24 12
      vertex 20 25 0
      vertex 20 25 12
    endloop
  endfacet
  facet normal 1 0 0
    outer loop
      vertex 20 23 0
      vertex 20 24 12
      vertex 20 23 22
    endloop
  endfacet
  facet normal 1 0 0
    outer loop
      vertex 20 24 12
      vertex 20 23 0
      vertex 20 25 0
    endloop
  endfacet
  facet normal -0 0 1
    outer loop
      vertex 0 24 22
      vertex 20 23 22
      vertex 20 24 22
    endloop
  endfacet
  facet normal 0 0 1
    outer loop
      vertex 20 23 22
      vertex 0 24 22
      vertex 0 23 22
    endloop
  endfacet
  facet normal 0 0 -1
    outer loop
      vertex 0 23 2
      vertex 18 25 2
      vertex 18 23 2
    endloop
  endfacet
  facet normal -0 0 -1
    outer loop
      vertex 18 25 2
      vertex 0 23 2
      vertex 0 25 2
    endloop
  endfacet
  facet normal -1 0 0
    outer loop
      vertex 0 25 2
      vertex 0 24 3
      vertex 0 25 3
    endloop
  endfacet
  facet normal -1 0 0
    outer loop
      vertex 0 23 2
      vertex 0 24 3
      vertex 0 25 2
    endloop
  endfacet
  facet normal -1 0 0
    outer loop
      vertex 0 23 22
      vertex 0 24 3
      vertex 0 23 2
    endloop
  endfacet
  facet normal -1 0 0
    outer loop
      vertex 0 24 3
      vertex 0 23 22
      vertex 0 24 22
    endloop
  endfacet
  facet normal 0 1 0
    outer loop
      vertex 18 24 12
      vertex 20 24 22
      vertex 20 24 12
    endloop
  endfacet
  facet normal 0 1 0
    outer loop
      vertex 20 24 22
      vertex 18 24 12
      vertex 0 24 22
    endloop
  endfacet
  facet normal 0 1 0
    outer loop
      vertex 0 24 3
      vertex 18 24 12
      vertex 18 24 3
    endloop
  endfacet
  facet normal 0 1 0
    outer loop
      vertex 18 24 12
      vertex 0 24 3
      vertex 0 24 22
    endloop
  endfacet
  facet normal 0 -1 0
    outer loop
      vertex 18 23 2
      vertex 0 23 22
      vertex 0 23 2
    endloop
  endfacet
  facet normal 0 -1 0
    outer loop
      vertex 0 23 22
      vertex 18 23 2
      vertex 20 23 22
    endloop
  endfacet
  facet normal 0 -1 0
    outer loop
      vertex 20 23 0
      vertex 18 23 2
      vertex 18 23 0
    endloop
  endfacet
  facet normal 0 -1 0
    outer loop
      vertex 18 23 2
      vertex 20 23 0
      vertex 20 23 22
    endloop
  endfacet
  facet normal -0 0 1
    outer loop
      vertex 0 2 3
      vertex 18 1 3
      vertex 18 2 3
    endloop
  endfacet
  facet normal 0 0 1
    outer loop
      vertex 18 1 3
      vertex 0 2 3
      vertex 0 1 3
    endloop
  endfacet
  facet normal 0 1 0
    outer loop
      vertex 20 2 12
      vertex 18 2 3
      vertex 18 2 12
    endloop
  endfacet
  facet normal 0 1 0
    outer loop
      vertex 18 2 3
      vertex 18 2 2
      vertex 0 2 3
    endloop
  endfacet
  facet normal 0 1 -0
    outer loop
      vertex 20 2 0
      vertex 18 2 3
      vertex 20 2 12
    endloop
  endfacet
  facet normal 0 1 0
    outer loop
      vertex 18 2 3
      vertex 20 2 0
      vertex 18 2 2
    endloop
  endfacet
  facet normal 0 1 0
    outer loop
      vertex 18 2 2
      vertex 20 2 0
      vertex 18 2 0
    endloop
  endfacet
  facet normal 0 1 0
    outer loop
      vertex 0 2 3
      vertex 18 2 2
      vertex 0 2 2
    endloop
  endfacet
  facet normal -0 0 1
    outer loop
      vertex 0 25 3
      vertex 18 24 3
      vertex 18 25 3
    endloop
  endfacet
  facet normal 0 0 1
    outer loop
      vertex 18 24 3
      vertex 0 25 3
      vertex 0 24 3
    endloop
  endfacet
  facet normal 0 1 0
    outer loop
      vertex 20 25 12
      vertex 18 25 3
      vertex 18 25 12
    endloop
  endfacet
  facet normal 0 1 0
    outer loop
      vertex 18 25 3
      vertex 18 25 2
      vertex 0 25 3
    endloop
  endfacet
  facet normal 0 1 -0
    outer loop
      vertex 20 25 0
      vertex 18 25 3
      vertex 20 25 12
    endloop
  endfacet
  facet normal 0 1 0
    outer loop
      vertex 18 25 3
      vertex 20 25 0
      vertex 18 25 2
    endloop
  endfacet
  facet normal 0 1 0
    outer loop
      vertex 18 25 2
      vertex 20 25 0
      vertex 18 25 0
    endloop
  endfacet
  facet normal 0 1 0
    outer loop
      vertex 0 25 3
      vertex 18 25 2
      vertex 0 25 2
    endloop
  endfacet
  facet normal 1 0 0
    outer loop
      vertex 20 47 22
      vertex 20 46 22
      vertex 20 47 12
    endloop
  endfacet
  facet normal 1 -0 0
    outer loop
      vertex 20 47 12
      vertex 20 48 0
      vertex 20 48 12
    endloop
  endfacet
  facet normal 1 0 0
    outer loop
      vertex 20 46 0
      vertex 20 47 12
      vertex 20 46 22
    endloop
  endfacet
  facet normal 1 0 0
    outer loop
      vertex 20 47 12
      vertex 20 46 0
      vertex 20 48 0
    endloop
  endfacet
  facet normal -0 0 1
    outer loop
      vertex 0 47 22
      vertex 20 46 22
      vertex 20 47 22
    endloop
  endfacet
  facet normal 0 0 1
    outer loop
      vertex 20 46 22
      vertex 0 47 22
      vertex 0 46 22
    endloop
  endfacet
  facet normal 0 0 -1
    outer loop
      vertex 0 46 2
      vertex 18 48 2
      vertex 18 46 2
    endloop
  endfacet
  facet normal -0 0 -1
    outer loop
      vertex 18 48 2
      vertex 0 46 2
      vertex 0 48 2
    endloop
  endfacet
  facet normal -1 0 0
    outer loop
      vertex 0 48 2
      vertex 0 47 3
      vertex 0 48 3
    endloop
  endfacet
  facet normal -1 0 0
    outer loop
      vertex 0 46 2
      vertex 0 47 3
      vertex 0 48 2
    endloop
  endfacet
  facet normal -1 0 0
    outer loop
      vertex 0 46 22
      vertex 0 47 3
      vertex 0 46 2
    endloop
  endfacet
  facet normal -1 0 0
    outer loop
      vertex 0 47 3
      vertex 0 46 22
      vertex 0 47 22
    endloop
  endfacet
  facet normal 0 1 0
    outer loop
      vertex 18 47 12
      vertex 20 47 22
      vertex 20 47 12
    endloop
  endfacet
  facet normal 0 1 0
    outer loop
      vertex 20 47 22
      vertex 18 47 12
      vertex 0 47 22
    endloop
  endfacet
  facet normal 0 1 0
    outer loop
      vertex 0 47 3
      vertex 18 47 12
      vertex 18 47 3
    endloop
  endfacet
  facet normal 0 1 0
    outer loop
      vertex 18 47 12
      vertex 0 47 3
      vertex 0 47 22
    endloop
  endfacet
  facet normal 0 -1 0
    outer loop
      vertex 18 46 2
      vertex 0 46 22
      vertex 0 46 2
    endloop
  endfacet
  facet normal 0 -1 0
    outer loop
      vertex 0 46 22
      vertex 18 46 2
      vertex 20 46 22
    endloop
  endfacet
  facet normal 0 -1 0
    outer loop
      vertex 20 46 0
      vertex 18 46 2
      vertex 18 46 0
    endloop
  endfacet
  facet normal 0 -1 0
    outer loop
      vertex 18 46 2
      vertex 20 46 0
      vertex 20 46 22
    endloop
  endfacet
  facet normal 1 0 0
    outer loop
      vertex 20 70 22
      vertex 20 69 22
      vertex 20 70 12
    endloop
  endfacet
  facet normal 1 -0 0
    outer loop
      vertex 20 70 12
      vertex 20 71 0
      vertex 20 71 12
    endloop
  endfacet
  facet normal 1 0 0
    outer loop
      vertex 20 69 0
      vertex 20 70 12
      vertex 20 69 22
    endloop
  endfacet
  facet normal 1 0 0
    outer loop
      vertex 20 70 12
      vertex 20 69 0
      vertex 20 71 0
    endloop
  endfacet
  facet normal -0 0 1
    outer loop
      vertex 0 70 22
      vertex 20 69 22
      vertex 20 70 22
    endloop
  endfacet
  facet normal 0 0 1
    outer loop
      vertex 20 69 22
      vertex 0 70 22
      vertex 0 69 22
    endloop
  endfacet
  facet normal 0 0 -1
    outer loop
      vertex 0 69 2
      vertex 18 71 2
      vertex 18 69 2
    endloop
  endfacet
  facet normal -0 0 -1
    outer loop
      vertex 18 71 2
      vertex 0 69 2
      vertex 0 71 2
    endloop
  endfacet
  facet normal -1 0 0
    outer loop
      vertex 0 71 2
      vertex 0 70 3
      vertex 0 71 3
    endloop
  endfacet
  facet normal -1 0 0
    outer loop
      vertex 0 69 2
      vertex 0 70 3
      vertex 0 71 2
    endloop
  endfacet
  facet normal -1 0 0
    outer loop
      vertex 0 69 22
      vertex 0 70 3
      vertex 0 69 2
    endloop
  endfacet
  facet normal -1 0 0
    outer loop
      vertex 0 70 3
      vertex 0 69 22
      vertex 0 70 22
    endloop
  endfacet
  facet normal 0 1 0
    outer loop
      vertex 18 70 12
      vertex 20 70 22
      vertex 20 70 12
    endloop
  endfacet
  facet normal 0 1 0
    outer loop
      vertex 20 70 22
      vertex 18 70 12
      vertex 0 70 22
    endloop
  endfacet
  facet normal 0 1 0
    outer loop
      vertex 0 70 3
      vertex 18 70 12
      vertex 18 70 3
    endloop
  endfacet
  facet normal 0 1 0
    outer loop
      vertex 18 70 12
      vertex 0 70 3
      vertex 0 70 22
    endloop
  endfacet
  facet normal 0 -1 0
    outer loop
      vertex 18 69 2
      vertex 0 69 22
      vertex 0 69 2
    endloop
  endfacet
  facet normal 0 -1 0
    outer loop
      vertex 0 69 22
      vertex 18 69 2
      vertex 20 69 22
    endloop
  endfacet
  facet normal 0 -1 0
    outer loop
      vertex 20 69 0
      vertex 18 69 2
      vertex 18 69 0
    endloop
  endfacet
  facet normal 0 -1 0
    outer loop
      vertex 18 69 2
      vertex 20 69 0
      vertex 20 69 22
    endloop
  endfacet
  facet normal 1 0 0
    outer loop
      vertex 20 93 22
      vertex 20 92 22
      vertex 20 93 12
    endloop
  endfacet
  facet normal 1 -0 0
    outer loop
      vertex 20 93 12
      vertex 20 94 0
      vertex 20 94 12
    endloop
  endfacet
  facet normal 1 0 0
    outer loop
      vertex 20 92 0
      vertex 20 93 12
      vertex 20 92 22
    endloop
  endfacet
  facet normal 1 0 0
    outer loop
      vertex 20 93 12
      vertex 20 92 0
      vertex 20 94 0
    endloop
  endfacet
  facet normal -0 0 1
    outer loop
      vertex 0 93 22
      vertex 20 92 22
      vertex 20 93 22
    endloop
  endfacet
  facet normal 0 0 1
    outer loop
      vertex 20 92 22
      vertex 0 93 22
      vertex 0 92 22
    endloop
  endfacet
  facet normal 0 0 -1
    outer loop
      vertex 0 92 2
      vertex 18 93 2
      vertex 18 92 2
    endloop
  endfacet
  facet normal -0 0 -1
    outer loop
      vertex 18 93 2
      vertex 0 92 2
      vertex 0 93 2
    endloop
  endfacet
  facet normal -1 0 0
    outer loop
      vertex 0 92 2
      vertex 0 93 22
      vertex 0 93 2
    endloop
  endfacet
  facet normal -1 -0 0
    outer loop
      vertex 0 93 22
      vertex 0 92 2
      vertex 0 92 22
    endloop
  endfacet
  facet normal 0 1 0
    outer loop
      vertex 18 93 12
      vertex 20 93 22
      vertex 20 93 12
    endloop
  endfacet
  facet normal 0 1 0
    outer loop
      vertex 20 93 22
      vertex 18 93 12
      vertex 0 93 22
    endloop
  endfacet
  facet normal 0 1 0
    outer loop
      vertex 0 93 2
      vertex 18 93 12
      vertex 18 93 2
    endloop
  endfacet
  facet normal 0 1 0
    outer loop
      vertex 18 93 12
      vertex 0 93 2
      vertex 0 93 22
    endloop
  endfacet
  facet normal 0 -1 0
    outer loop
      vertex 18 92 2
      vertex 0 92 22
      vertex 0 92 2
    endloop
  endfacet
  facet normal 0 -1 0
    outer loop
      vertex 0 92 22
      vertex 18 92 2
      vertex 20 92 22
    endloop
  endfacet
  facet normal 0 -1 0
    outer loop
      vertex 20 92 0
      vertex 18 92 2
      vertex 18 92 0
    endloop
  endfacet
  facet normal 0 -1 0
    outer loop
      vertex 18 92 2
      vertex 20 92 0
      vertex 20 92 22
    endloop
  endfacet
  facet normal -0 0 1
    outer loop
      vertex 0 48 3
      vertex 18 47 3
      vertex 18 48 3
    endloop
  endfacet
  facet normal 0 0 1
    outer loop
      vertex 18 47 3
      vertex 0 48 3
      vertex 0 47 3
    endloop
  endfacet
  facet normal 0 1 0
    outer loop
      vertex 20 48 12
      vertex 18 48 3
      vertex 18 48 12
    endloop
  endfacet
  facet normal 0 1 0
    outer loop
      vertex 18 48 3
      vertex 18 48 2
      vertex 0 48 3
    endloop
  endfacet
  facet normal 0 1 -0
    outer loop
      vertex 20 48 0
      vertex 18 48 3
      vertex 20 48 12
    endloop
  endfacet
  facet normal 0 1 0
    outer loop
      vertex 18 48 3
      vertex 20 48 0
      vertex 18 48 2
    endloop
  endfacet
  facet normal 0 1 0
    outer loop
      vertex 18 48 2
      vertex 20 48 0
      vertex 18 48 0
    endloop
  endfacet
  facet normal 0 1 0
    outer loop
      vertex 0 48 3
      vertex 18 48 2
      vertex 0 48 2
    endloop
  endfacet
  facet normal 1 -0 0
    outer loop
      vertex 20 115 22
      vertex 20 116 2
      vertex 20 116 22
    endloop
  endfacet
  facet normal 1 0 0
    outer loop
      vertex 20 116 2
      vertex 20 115 22
      vertex 20 115 2
    endloop
  endfacet
  facet normal -0 0 1
    outer loop
      vertex 0 116 22
      vertex 20 115 22
      vertex 20 116 22
    endloop
  endfacet
  facet normal 0 0 1
    outer loop
      vertex 20 115 22
      vertex 0 116 22
      vertex 0 115 22
    endloop
  endfacet
  facet normal 0 0 -1
    outer loop
      vertex 0 115 2
      vertex 20 116 2
      vertex 20 115 2
    endloop
  endfacet
  facet normal -0 0 -1
    outer loop
      vertex 20 116 2
      vertex 0 115 2
      vertex 0 116 2
    endloop
  endfacet
  facet normal -1 0 0
    outer loop
      vertex 0 115 2
      vertex 0 116 22
      vertex 0 116 2
    endloop
  endfacet
  facet normal -1 -0 0
    outer loop
      vertex 0 116 22
      vertex 0 115 2
      vertex 0 115 22
    endloop
  endfacet
  facet normal 0 1 -0
    outer loop
      vertex 20 116 2
      vertex 0 116 22
      vertex 20 116 22
    endloop
  endfacet
  facet normal 0 1 0
    outer loop
      vertex 0 116 22
      vertex 20 116 2
      vertex 0 116 2
    endloop
  endfacet
  facet normal 0 -1 0
    outer loop
      vertex 0 115 2
      vertex 20 115 22
      vertex 0 115 22
    endloop
  endfacet
  facet normal 0 -1 -0
    outer loop
      vertex 20 115 22
      vertex 0 115 2
      vertex 20 115 2
    endloop
  endfacet
  facet normal 1 -0 0
    outer loop
      vertex 20 138 22
      vertex 20 139 2
      vertex 20 139 22
    endloop
  endfacet
  facet normal 1 0 0
    outer loop
      vertex 20 139 2
      vertex 20 138 22
      vertex 20 138 2
    endloop
  endfacet
  facet normal -0 0 1
    outer loop
      vertex 0 139 22
      vertex 20 138 22
      vertex 20 139 22
    endloop
  endfacet
  facet normal 0 0 1
    outer loop
      vertex 20 138 22
      vertex 0 139 22
      vertex 0 138 22
    endloop
  endfacet
  facet normal 0 0 -1
    outer loop
      vertex 0 138 2
      vertex 20 139 2
      vertex 20 138 2
    endloop
  endfacet
  facet normal -0 0 -1
    outer loop
      vertex 20 139 2
      vertex 0 138 2
      vertex 0 139 2
    endloop
  endfacet
  facet normal -1 0 0
    outer loop
      vertex 0 138 2
      vertex 0 139 22
      vertex 0 139 2
    endloop
  endfacet
  facet normal -1 -0 0
    outer loop
      vertex 0 139 22
      vertex 0 138 2
      vertex 0 138 22
    endloop
  endfacet
  facet normal 0 1 -0
    outer loop
      vertex 20 139 2
      vertex 0 139 22
      vertex 20 139 22
    endloop
  endfacet
  facet normal 0 1 0
    outer loop
      vertex 0 139 22
      vertex 20 139 2
      vertex 0 139 2
    endloop
  endfacet
  facet normal 0 -1 0
    outer loop
      vertex 0 138 2
      vertex 20 138 22
      vertex 0 138 22
    endloop
  endfacet
  facet normal 0 -1 -0
    outer loop
      vertex 20 138 22
      vertex 0 138 2
      vertex 20 138 2
    endloop
  endfacet
  facet normal -0 0 1
    outer loop
      vertex 0 71 3
      vertex 18 70 3
      vertex 18 71 3
    endloop
  endfacet
  facet normal 0 0 1
    outer loop
      vertex 18 70 3
      vertex 0 71 3
      vertex 0 70 3
    endloop
  endfacet
  facet normal 0 1 0
    outer loop
      vertex 20 71 12
      vertex 18 71 3
      vertex 18 71 12
    endloop
  endfacet
  facet normal 0 1 0
    outer loop
      vertex 18 71 3
      vertex 18 71 2
      vertex 0 71 3
    endloop
  endfacet
  facet normal 0 1 -0
    outer loop
      vertex 20 71 0
      vertex 18 71 3
      vertex 20 71 12
    endloop
  endfacet
  facet normal 0 1 0
    outer loop
      vertex 18 71 3
      vertex 20 71 0
      vertex 18 71 2
    endloop
  endfacet
  facet normal 0 1 0
    outer loop
      vertex 18 71 2
      vertex 20 71 0
      vertex 18 71 0
    endloop
  endfacet
  facet normal 0 1 0
    outer loop
      vertex 0 71 3
      vertex 18 71 2
      vertex 0 71 2
    endloop
  endfacet
  facet normal -0 0 1
    outer loop
      vertex 18 2 12
      vertex 20 1 12
      vertex 20 2 12
    endloop
  endfacet
  facet normal 0 0 1
    outer loop
      vertex 20 1 12
      vertex 18 2 12
      vertex 18 1 12
    endloop
  endfacet
  facet normal 0 0 -1
    outer loop
      vertex 18 0 0
      vertex 20 2 0
      vertex 20 0 0
    endloop
  endfacet
  facet normal -0 0 -1
    outer loop
      vertex 20 2 0
      vertex 18 0 0
      vertex 18 2 0
    endloop
  endfacet
  facet normal -1 0 0
    outer loop
      vertex 18 1 3
      vertex 18 2 12
      vertex 18 2 3
    endloop
  endfacet
  facet normal -1 -0 0
    outer loop
      vertex 18 2 12
      vertex 18 1 3
      vertex 18 1 12
    endloop
  endfacet
  facet normal -1 0 0
    outer loop
      vertex 18 0 0
      vertex 18 2 2
      vertex 18 2 0
    endloop
  endfacet
  facet normal -1 -0 0
    outer loop
      vertex 18 2 2
      vertex 18 0 0
      vertex 18 0 2
    endloop
  endfacet
  facet normal -0 0 1
    outer loop
      vertex 18 25 12
      vertex 20 24 12
      vertex 20 25 12
    endloop
  endfacet
  facet normal 0 0 1
    outer loop
      vertex 20 24 12
      vertex 18 25 12
      vertex 18 24 12
    endloop
  endfacet
  facet normal 0 0 -1
    outer loop
      vertex 18 23 0
      vertex 20 25 0
      vertex 20 23 0
    endloop
  endfacet
  facet normal -0 0 -1
    outer loop
      vertex 20 25 0
      vertex 18 23 0
      vertex 18 25 0
    endloop
  endfacet
  facet normal -1 0 0
    outer loop
      vertex 18 24 3
      vertex 18 25 12
      vertex 18 25 3
    endloop
  endfacet
  facet normal -1 -0 0
    outer loop
      vertex 18 25 12
      vertex 18 24 3
      vertex 18 24 12
    endloop
  endfacet
  facet normal -1 0 0
    outer loop
      vertex 18 23 0
      vertex 18 25 2
      vertex 18 25 0
    endloop
  endfacet
  facet normal -1 -0 0
    outer loop
      vertex 18 25 2
      vertex 18 23 0
      vertex 18 23 2
    endloop
  endfacet
  facet normal -0 0 1
    outer loop
      vertex 18 48 12
      vertex 20 47 12
      vertex 20 48 12
    endloop
  endfacet
  facet normal 0 0 1
    outer loop
      vertex 20 47 12
      vertex 18 48 12
      vertex 18 47 12
    endloop
  endfacet
  facet normal 0 0 -1
    outer loop
      vertex 18 46 0
      vertex 20 48 0
      vertex 20 46 0
    endloop
  endfacet
  facet normal -0 0 -1
    outer loop
      vertex 20 48 0
      vertex 18 46 0
      vertex 18 48 0
    endloop
  endfacet
  facet normal -1 0 0
    outer loop
      vertex 18 47 3
      vertex 18 48 12
      vertex 18 48 3
    endloop
  endfacet
  facet normal -1 -0 0
    outer loop
      vertex 18 48 12
      vertex 18 47 3
      vertex 18 47 12
    endloop
  endfacet
  facet normal -1 0 0
    outer loop
      vertex 18 46 0
      vertex 18 48 2
      vertex 18 48 0
    endloop
  endfacet
  facet normal -1 -0 0
    outer loop
      vertex 18 48 2
      vertex 18 46 0
      vertex 18 46 2
    endloop
  endfacet
  facet normal -0 0 1
    outer loop
      vertex 18 71 12
      vertex 20 70 12
      vertex 20 71 12
    endloop
  endfacet
  facet normal 0 0 1
    outer loop
      vertex 20 70 12
      vertex 18 71 12
      vertex 18 70 12
    endloop
  endfacet
  facet normal 0 0 -1
    outer loop
      vertex 18 69 0
      vertex 20 71 0
      vertex 20 69 0
    endloop
  endfacet
  facet normal -0 0 -1
    outer loop
      vertex 20 71 0
      vertex 18 69 0
      vertex 18 71 0
    endloop
  endfacet
  facet normal -1 0 0
    outer loop
      vertex 18 70 3
      vertex 18 71 12
      vertex 18 71 3
    endloop
  endfacet
  facet normal -1 -0 0
    outer loop
      vertex 18 71 12
      vertex 18 70 3
      vertex 18 70 12
    endloop
  endfacet
  facet normal -1 0 0
    outer loop
      vertex 18 69 0
      vertex 18 71 2
      vertex 18 71 0
    endloop
  endfacet
  facet normal -1 -0 0
    outer loop
      vertex 18 71 2
      vertex 18 69 0
      vertex 18 69 2
    endloop
  endfacet
  facet normal -0 0 1
    outer loop
      vertex 18 94 12
      vertex 20 93 12
      vertex 20 94 12
    endloop
  endfacet
  facet normal 0 0 1
    outer loop
      vertex 20 93 12
      vertex 18 94 12
      vertex 18 93 12
    endloop
  endfacet
  facet normal 0 0 -1
    outer loop
      vertex 18 92 0
      vertex 20 94 0
      vertex 20 92 0
    endloop
  endfacet
  facet normal -0 0 -1
    outer loop
      vertex 20 94 0
      vertex 18 92 0
      vertex 18 94 0
    endloop
  endfacet
  facet normal -1 0 0
    outer loop
      vertex 18 94 0
      vertex 18 93 2
      vertex 18 94 12
    endloop
  endfacet
  facet normal -1 0 0
    outer loop
      vertex 18 92 0
      vertex 18 93 2
      vertex 18 94 0
    endloop
  endfacet
  facet normal -1 -0 0
    outer loop
      vertex 18 93 2
      vertex 18 92 0
      vertex 18 92 2
    endloop
  endfacet
  facet normal -1 -0 0
    outer loop
      vertex 18 94 12
      vertex 18 93 2
      vertex 18 93 12
    endloop
  endfacet
  facet normal 0 1 -0
    outer loop
      vertex 20 94 0
      vertex 18 94 12
      vertex 20 94 12
    endloop
  endfacet
  facet normal 0 1 0
    outer loop
      vertex 18 94 12
      vertex 20 94 0
      vertex 18 94 0
    endloop
  endfacet
endsolid OpenSCAD_Model
