solid OpenSCAD_Model
  facet normal 1 -0 0
    outer loop
      vertex 5 0 0
      vertex 5 5 -70
      vertex 5 5 0
    endloop
  endfacet
  facet normal 1 0 0
    outer loop
      vertex 5 5 -70
      vertex 5 0 0
      vertex 5 0 -70
    endloop
  endfacet
  facet normal -0 0 1
    outer loop
      vertex 0 5 0
      vertex 5 0 0
      vertex 5 5 0
    endloop
  endfacet
  facet normal 0 0 1
    outer loop
      vertex 5 0 0
      vertex 0 5 0
      vertex 0 0 0
    endloop
  endfacet
  facet normal 0 0 -1
    outer loop
      vertex 0 0 -70
      vertex 5 5 -70
      vertex 5 0 -70
    endloop
  endfacet
  facet normal -0 0 -1
    outer loop
      vertex 5 5 -70
      vertex 0 0 -70
      vertex 0 5 -70
    endloop
  endfacet
  facet normal -1 0 0
    outer loop
      vertex 0 0 -70
      vertex 0 5 0
      vertex 0 5 -70
    endloop
  endfacet
  facet normal -1 -0 0
    outer loop
      vertex 0 5 0
      vertex 0 0 -70
      vertex 0 0 0
    endloop
  endfacet
  facet normal 0 1 -0
    outer loop
      vertex 5 5 -70
      vertex 0 5 0
      vertex 5 5 0
    endloop
  endfacet
  facet normal 0 1 0
    outer loop
      vertex 0 5 0
      vertex 5 5 -70
      vertex 0 5 -70
    endloop
  endfacet
  facet normal 0 -1 0
    outer loop
      vertex 0 0 -70
      vertex 5 0 0
      vertex 0 0 0
    endloop
  endfacet
  facet normal 0 -1 -0
    outer loop
      vertex 5 0 0
      vertex 0 0 -70
      vertex 5 0 -70
    endloop
  endfacet
  facet normal 1 -0 0
    outer loop
      vertex 100 0 0
      vertex 100 5 -70
      vertex 100 5 0
    endloop
  endfacet
  facet normal 1 0 0
    outer loop
      vertex 100 5 -70
      vertex 100 0 0
      vertex 100 0 -70
    endloop
  endfacet
  facet normal -0 0 1
    outer loop
      vertex 95 5 0
      vertex 100 0 0
      vertex 100 5 0
    endloop
  endfacet
  facet normal 0 0 1
    outer loop
      vertex 100 0 0
      vertex 95 5 0
      vertex 95 0 0
    endloop
  endfacet
  facet normal 0 0 -1
    outer loop
      vertex 95 0 -70
      vertex 100 5 -70
      vertex 100 0 -70
    endloop
  endfacet
  facet normal -0 0 -1
    outer loop
      vertex 100 5 -70
      vertex 95 0 -70
      vertex 95 5 -70
    endloop
  endfacet
  facet normal -1 0 0
    outer loop
      vertex 95 0 -70
      vertex 95 5 0
      vertex 95 5 -70
    endloop
  endfacet
  facet normal -1 -0 0
    outer loop
      vertex 95 5 0
      vertex 95 0 -70
      vertex 95 0 0
    endloop
  endfacet
  facet normal 0 1 -0
    outer loop
      vertex 100 5 -70
      vertex 95 5 0
      vertex 100 5 0
    endloop
  endfacet
  facet normal 0 1 0
    outer loop
      vertex 95 5 0
      vertex 100 5 -70
      vertex 95 5 -70
    endloop
  endfacet
  facet normal 0 -1 0
    outer loop
      vertex 95 0 -70
      vertex 100 0 0
      vertex 95 0 0
    endloop
  endfacet
  facet normal 0 -1 -0
    outer loop
      vertex 100 0 0
      vertex 95 0 -70
      vertex 100 0 -70
    endloop
  endfacet
  facet normal 1 -0 0
    outer loop
      vertex 100 55 0
      vertex 100 60 -70
      vertex 100 60 0
    endloop
  endfacet
  facet normal 1 0 0
    outer loop
      vertex 100 60 -70
      vertex 100 55 0
      vertex 100 55 -70
    endloop
  endfacet
  facet normal -0 0 1
    outer loop
      vertex 95 60 0
      vertex 100 55 0
      vertex 100 60 0
    endloop
  endfacet
  facet normal 0 0 1
    outer loop
      vertex 100 55 0
      vertex 95 60 0
      vertex 95 55 0
    endloop
  endfacet
  facet normal 0 0 -1
    outer loop
      vertex 95 55 -70
      vertex 100 60 -70
      vertex 100 55 -70
    endloop
  endfacet
  facet normal -0 0 -1
    outer loop
      vertex 100 60 -70
      vertex 95 55 -70
      vertex 95 60 -70
    endloop
  endfacet
  facet normal -1 0 0
    outer loop
      vertex 95 55 -70
      vertex 95 60 0
      vertex 95 60 -70
    endloop
  endfacet
  facet normal -1 -0 0
    outer loop
      vertex 95 60 0
      vertex 95 55 -70
      vertex 95 55 0
    endloop
  endfacet
  facet normal 0 1 -0
    outer loop
      vertex 100 60 -70
      vertex 95 60 0
      vertex 100 60 0
    endloop
  endfacet
  facet normal 0 1 0
    outer loop
      vertex 95 60 0
      vertex 100 60 -70
      vertex 95 60 -70
    endloop
  endfacet
  facet normal 0 -1 0
    outer loop
      vertex 95 55 -70
      vertex 100 55 0
      vertex 95 55 0
    endloop
  endfacet
  facet normal 0 -1 -0
    outer loop
      vertex 100 55 0
      vertex 95 55 -70
      vertex 100 55 -70
    endloop
  endfacet
  facet normal 1 -0 0
    outer loop
      vertex 5 55 0
      vertex 5 60 -70
      vertex 5 60 0
    endloop
  endfacet
  facet normal 1 0 0
    outer loop
      vertex 5 60 -70
      vertex 5 55 0
      vertex 5 55 -70
    endloop
  endfacet
  facet normal -0 0 1
    outer loop
      vertex 0 60 0
      vertex 5 55 0
      vertex 5 60 0
    endloop
  endfacet
  facet normal 0 0 1
    outer loop
      vertex 5 55 0
      vertex 0 60 0
      vertex 0 55 0
    endloop
  endfacet
  facet normal 0 0 -1
    outer loop
      vertex 0 55 -70
      vertex 5 60 -70
      vertex 5 55 -70
    endloop
  endfacet
  facet normal -0 0 -1
    outer loop
      vertex 5 60 -70
      vertex 0 55 -70
      vertex 0 60 -70
    endloop
  endfacet
  facet normal -1 0 0
    outer loop
      vertex 0 55 -70
      vertex 0 60 0
      vertex 0 60 -70
    endloop
  endfacet
  facet normal -1 -0 0
    outer loop
      vertex 0 60 0
      vertex 0 55 -70
      vertex 0 55 0
    endloop
  endfacet
  facet normal 0 1 -0
    outer loop
      vertex 5 60 -70
      vertex 0 60 0
      vertex 5 60 0
    endloop
  endfacet
  facet normal 0 1 0
    outer loop
      vertex 0 60 0
      vertex 5 60 -70
      vertex 0 60 -70
    endloop
  endfacet
  facet normal 0 -1 0
    outer loop
      vertex 0 55 -70
      vertex 5 55 0
      vertex 0 55 0
    endloop
  endfacet
  facet normal 0 -1 -0
    outer loop
      vertex 5 55 0
      vertex 0 55 -70
      vertex 5 55 -70
    endloop
  endfacet
endsolid OpenSCAD_Model
