solid OpenSCAD_Model
  facet normal 1 -0 0
    outer loop
      vertex 30 -20 15
      vertex 30 0 0
      vertex 30 0 15
    endloop
  endfacet
  facet normal 1 0 0
    outer loop
      vertex 30 0 0
      vertex 30 -20 15
      vertex 30 -20 0
    endloop
  endfacet
  facet normal 0 0 1
    outer loop
      vertex 0 20 15
      vertex -20 15 15
      vertex 0 15 15
    endloop
  endfacet
  facet normal 0 0 1
    outer loop
      vertex -20 15 15
      vertex -30 20 15
      vertex -20 -15 15
    endloop
  endfacet
  facet normal -0 0 1
    outer loop
      vertex -30 20 15
      vertex -20 15 15
      vertex 0 20 15
    endloop
  endfacet
  facet normal 0 0 1
    outer loop
      vertex 20 -15 15
      vertex 30 0 15
      vertex 20 0 15
    endloop
  endfacet
  facet normal 0 0 1
    outer loop
      vertex 30 0 15
      vertex 20 -15 15
      vertex 30 -20 15
    endloop
  endfacet
  facet normal -0 0 1
    outer loop
      vertex -20 -15 15
      vertex 30 -20 15
      vertex 20 -15 15
    endloop
  endfacet
  facet normal 0 0 1
    outer loop
      vertex -20 -15 15
      vertex -30 -20 15
      vertex 30 -20 15
    endloop
  endfacet
  facet normal 0 0 1
    outer loop
      vertex -30 -20 15
      vertex -20 -15 15
      vertex -30 20 15
    endloop
  endfacet
  facet normal 0 0 -1
    outer loop
      vertex 0 0 15
      vertex 20 15 15
      vertex 20 0 15
    endloop
  endfacet
  facet normal -0 0 -1
    outer loop
      vertex 20 15 15
      vertex 0 0 15
      vertex 0 15 15
    endloop
  endfacet
  facet normal 0 0 -1
    outer loop
      vertex 30 -20 0
      vertex 0 0 0
      vertex 30 0 0
    endloop
  endfacet
  facet normal 0 0 -1
    outer loop
      vertex -30 -20 0
      vertex 0 0 0
      vertex 30 -20 0
    endloop
  endfacet
  facet normal 0 0 -1
    outer loop
      vertex -30 20 0
      vertex 0 0 0
      vertex -30 -20 0
    endloop
  endfacet
  facet normal 0 0 -1
    outer loop
      vertex 0 0 0
      vertex -30 20 0
      vertex 0 20 0
    endloop
  endfacet
  facet normal -1 0 0
    outer loop
      vertex -30 -20 0
      vertex -30 20 15
      vertex -30 20 0
    endloop
  endfacet
  facet normal -1 -0 0
    outer loop
      vertex -30 20 15
      vertex -30 -20 0
      vertex -30 -20 15
    endloop
  endfacet
  facet normal 0 1 -0
    outer loop
      vertex 0 20 0
      vertex -30 20 15
      vertex 0 20 15
    endloop
  endfacet
  facet normal 0 1 0
    outer loop
      vertex -30 20 15
      vertex 0 20 0
      vertex -30 20 0
    endloop
  endfacet
  facet normal 0 -1 0
    outer loop
      vertex -30 -20 0
      vertex 30 -20 15
      vertex -30 -20 15
    endloop
  endfacet
  facet normal 0 -1 -0
    outer loop
      vertex 30 -20 15
      vertex -30 -20 0
      vertex 30 -20 0
    endloop
  endfacet
  facet normal 1 0 0
    outer loop
      vertex 20 15 30
      vertex 20 0 15
      vertex 20 15 15
    endloop
  endfacet
  facet normal 1 -0 0
    outer loop
      vertex 20 -15 30
      vertex 20 0 15
      vertex 20 15 30
    endloop
  endfacet
  facet normal 1 0 0
    outer loop
      vertex 20 0 15
      vertex 20 -15 30
      vertex 20 -15 15
    endloop
  endfacet
  facet normal -0 0 1
    outer loop
      vertex -20 15 30
      vertex 20 -15 30
      vertex 20 15 30
    endloop
  endfacet
  facet normal 0 0 1
    outer loop
      vertex 20 -15 30
      vertex -20 15 30
      vertex -20 -15 30
    endloop
  endfacet
  facet normal -1 0 0
    outer loop
      vertex -20 -15 15
      vertex -20 15 30
      vertex -20 15 15
    endloop
  endfacet
  facet normal -1 -0 0
    outer loop
      vertex -20 15 30
      vertex -20 -15 15
      vertex -20 -15 30
    endloop
  endfacet
  facet normal 0 1 0
    outer loop
      vertex 0 15 15
      vertex 20 15 30
      vertex 20 15 15
    endloop
  endfacet
  facet normal 0 1 0
    outer loop
      vertex 20 15 30
      vertex 0 15 15
      vertex -20 15 30
    endloop
  endfacet
  facet normal 0 1 0
    outer loop
      vertex -20 15 30
      vertex 0 15 15
      vertex -20 15 15
    endloop
  endfacet
  facet normal 0 -1 0
    outer loop
      vertex -20 -15 15
      vertex 20 -15 30
      vertex -20 -15 30
    endloop
  endfacet
  facet normal 0 -1 -0
    outer loop
      vertex 20 -15 30
      vertex -20 -15 15
      vertex 20 -15 15
    endloop
  endfacet
  facet normal 1 -0 0
    outer loop
      vertex 0 15 15
      vertex 0 20 0
      vertex 0 20 15
    endloop
  endfacet
  facet normal 1 0 0
    outer loop
      vertex 0 0 0
      vertex 0 15 15
      vertex 0 0 15
    endloop
  endfacet
  facet normal 1 0 0
    outer loop
      vertex 0 15 15
      vertex 0 0 0
      vertex 0 20 0
    endloop
  endfacet
  facet normal 0 1 -0
    outer loop
      vertex 30 0 0
      vertex 20 0 15
      vertex 30 0 15
    endloop
  endfacet
  facet normal 0 1 0
    outer loop
      vertex 0 0 0
      vertex 20 0 15
      vertex 30 0 0
    endloop
  endfacet
  facet normal 0 1 0
    outer loop
      vertex 20 0 15
      vertex 0 0 0
      vertex 0 0 15
    endloop
  endfacet
endsolid OpenSCAD_Model
