solid OpenSCAD_Model
  facet normal 1 -0 0
    outer loop
      vertex 20 0 10
      vertex 20 40 0
      vertex 20 40 10
    endloop
  endfacet
  facet normal 1 0 0
    outer loop
      vertex 20 40 0
      vertex 20 0 10
      vertex 20 0 0
    endloop
  endfacet
  facet normal 0 0 1
    outer loop
      vertex 6 40 10
      vertex 0 40 10
      vertex 6 38 10
    endloop
  endfacet
  facet normal 0 0 1
    outer loop
      vertex 14 38 10
      vertex 20 40 10
      vertex 14 40 10
    endloop
  endfacet
  facet normal 0 0 1
    outer loop
      vertex 20 40 10
      vertex 14 38 10
      vertex 20 0 10
    endloop
  endfacet
  facet normal -0 0 1
    outer loop
      vertex 6 38 10
      vertex 20 0 10
      vertex 14 38 10
    endloop
  endfacet
  facet normal 0 0 1
    outer loop
      vertex 0 0 10
      vertex 6 38 10
      vertex 0 40 10
    endloop
  endfacet
  facet normal 0 0 1
    outer loop
      vertex 6 38 10
      vertex 0 0 10
      vertex 20 0 10
    endloop
  endfacet
  facet normal 0 0 -1
    outer loop
      vertex 20 0 0
      vertex 14 38 0
      vertex 20 40 0
    endloop
  endfacet
  facet normal 0 0 -1
    outer loop
      vertex 20 0 0
      vertex 6 38 0
      vertex 14 38 0
    endloop
  endfacet
  facet normal 0 0 -1
    outer loop
      vertex 0 0 0
      vertex 6 38 0
      vertex 20 0 0
    endloop
  endfacet
  facet normal 0 0 -1
    outer loop
      vertex 0 40 0
      vertex 6 38 0
      vertex 0 0 0
    endloop
  endfacet
  facet normal 0 0 -1
    outer loop
      vertex 6 38 0
      vertex 0 40 0
      vertex 6 40 0
    endloop
  endfacet
  facet normal -0 0 -1
    outer loop
      vertex 20 40 0
      vertex 14 38 0
      vertex 14 40 0
    endloop
  endfacet
  facet normal -1 0 0
    outer loop
      vertex 0 0 0
      vertex 0 40 10
      vertex 0 40 0
    endloop
  endfacet
  facet normal -1 -0 0
    outer loop
      vertex 0 40 10
      vertex 0 0 0
      vertex 0 0 10
    endloop
  endfacet
  facet normal 0 1 -0
    outer loop
      vertex 6 40 0
      vertex 0 40 10
      vertex 6 40 10
    endloop
  endfacet
  facet normal 0 1 0
    outer loop
      vertex 0 40 10
      vertex 6 40 0
      vertex 0 40 0
    endloop
  endfacet
  facet normal 0 1 -0
    outer loop
      vertex 20 40 0
      vertex 14 40 10
      vertex 20 40 10
    endloop
  endfacet
  facet normal 0 1 0
    outer loop
      vertex 14 40 10
      vertex 20 40 0
      vertex 14 40 0
    endloop
  endfacet
  facet normal 0 -1 0
    outer loop
      vertex 0 0 0
      vertex 20 0 10
      vertex 0 0 10
    endloop
  endfacet
  facet normal 0 -1 -0
    outer loop
      vertex 20 0 10
      vertex 0 0 0
      vertex 20 0 0
    endloop
  endfacet
  facet normal -1 0 0
    outer loop
      vertex 14 38 0
      vertex 14 40 10
      vertex 14 40 0
    endloop
  endfacet
  facet normal -1 -0 0
    outer loop
      vertex 14 40 10
      vertex 14 38 0
      vertex 14 38 10
    endloop
  endfacet
  facet normal 1 -0 0
    outer loop
      vertex 6 38 10
      vertex 6 40 0
      vertex 6 40 10
    endloop
  endfacet
  facet normal 1 0 0
    outer loop
      vertex 6 40 0
      vertex 6 38 10
      vertex 6 38 0
    endloop
  endfacet
  facet normal 0 1 -0
    outer loop
      vertex 14 38 0
      vertex 6 38 10
      vertex 14 38 10
    endloop
  endfacet
  facet normal 0 1 0
    outer loop
      vertex 6 38 10
      vertex 14 38 0
      vertex 6 38 0
    endloop
  endfacet
endsolid OpenSCAD_Model
