solid OpenSCAD_Model
  facet normal 1 -0 0
    outer loop
      vertex 5 5 0
      vertex 5 45 -25
      vertex 5 45 0
    endloop
  endfacet
  facet normal 1 0 0
    outer loop
      vertex 5 45 -25
      vertex 5 5 0
      vertex 5 5 -25
    endloop
  endfacet
  facet normal 0 0 1
    outer loop
      vertex 100 50 0
      vertex 95 45 0
      vertex 100 0 0
    endloop
  endfacet
  facet normal 0 0 1
    outer loop
      vertex 100 50 0
      vertex 5 45 0
      vertex 95 45 0
    endloop
  endfacet
  facet normal 0 0 1
    outer loop
      vertex 5 45 0
      vertex 0 50 0
      vertex 5 5 0
    endloop
  endfacet
  facet normal -0 0 1
    outer loop
      vertex 0 50 0
      vertex 5 45 0
      vertex 100 50 0
    endloop
  endfacet
  facet normal -0 0 1
    outer loop
      vertex 95 5 0
      vertex 100 0 0
      vertex 95 45 0
    endloop
  endfacet
  facet normal -0 0 1
    outer loop
      vertex 5 5 0
      vertex 100 0 0
      vertex 95 5 0
    endloop
  endfacet
  facet normal 0 0 1
    outer loop
      vertex 5 5 0
      vertex 0 0 0
      vertex 100 0 0
    endloop
  endfacet
  facet normal 0 0 1
    outer loop
      vertex 0 0 0
      vertex 5 5 0
      vertex 0 50 0
    endloop
  endfacet
  facet normal 0 0 -1
    outer loop
      vertex 100 0 -25
      vertex 95 5 -25
      vertex 100 50 -25
    endloop
  endfacet
  facet normal 0 0 -1
    outer loop
      vertex 100 0 -25
      vertex 5 5 -25
      vertex 95 5 -25
    endloop
  endfacet
  facet normal -0 0 -1
    outer loop
      vertex 5 5 -25
      vertex 0 0 -25
      vertex 5 45 -25
    endloop
  endfacet
  facet normal 0 0 -1
    outer loop
      vertex 0 0 -25
      vertex 5 5 -25
      vertex 100 0 -25
    endloop
  endfacet
  facet normal 0 0 -1
    outer loop
      vertex 95 45 -25
      vertex 100 50 -25
      vertex 95 5 -25
    endloop
  endfacet
  facet normal 0 0 -1
    outer loop
      vertex 5 45 -25
      vertex 100 50 -25
      vertex 95 45 -25
    endloop
  endfacet
  facet normal 0 0 -1
    outer loop
      vertex 5 45 -25
      vertex 0 50 -25
      vertex 100 50 -25
    endloop
  endfacet
  facet normal 0 0 -1
    outer loop
      vertex 0 50 -25
      vertex 5 45 -25
      vertex 0 0 -25
    endloop
  endfacet
  facet normal -1 0 0
    outer loop
      vertex 0 0 -25
      vertex 0 50 0
      vertex 0 50 -25
    endloop
  endfacet
  facet normal -1 -0 0
    outer loop
      vertex 0 50 0
      vertex 0 0 -25
      vertex 0 0 0
    endloop
  endfacet
  facet normal 0 1 -0
    outer loop
      vertex 100 50 -25
      vertex 0 50 0
      vertex 100 50 0
    endloop
  endfacet
  facet normal 0 1 0
    outer loop
      vertex 0 50 0
      vertex 100 50 -25
      vertex 0 50 -25
    endloop
  endfacet
  facet normal 0 -1 0
    outer loop
      vertex 0 0 -25
      vertex 100 0 0
      vertex 0 0 0
    endloop
  endfacet
  facet normal 0 -1 -0
    outer loop
      vertex 100 0 0
      vertex 0 0 -25
      vertex 100 0 -25
    endloop
  endfacet
  facet normal 1 -0 0
    outer loop
      vertex 100 0 0
      vertex 100 50 -25
      vertex 100 50 0
    endloop
  endfacet
  facet normal 1 0 0
    outer loop
      vertex 100 50 -25
      vertex 100 0 0
      vertex 100 0 -25
    endloop
  endfacet
  facet normal -1 0 0
    outer loop
      vertex 95 5 -25
      vertex 95 45 0
      vertex 95 45 -25
    endloop
  endfacet
  facet normal -1 -0 0
    outer loop
      vertex 95 45 0
      vertex 95 5 -25
      vertex 95 5 0
    endloop
  endfacet
  facet normal 0 -1 0
    outer loop
      vertex 5 45 -25
      vertex 95 45 0
      vertex 5 45 0
    endloop
  endfacet
  facet normal 0 -1 -0
    outer loop
      vertex 95 45 0
      vertex 5 45 -25
      vertex 95 45 -25
    endloop
  endfacet
  facet normal 0 1 -0
    outer loop
      vertex 95 5 -25
      vertex 5 5 0
      vertex 95 5 0
    endloop
  endfacet
  facet normal 0 1 0
    outer loop
      vertex 5 5 0
      vertex 95 5 -25
      vertex 5 5 -25
    endloop
  endfacet
endsolid OpenSCAD_Model
