solid OpenSCAD_Model
  facet normal 1 -0 0
    outer loop
      vertex 20 -20 2
      vertex 20 20 0
      vertex 20 20 2
    endloop
  endfacet
  facet normal 1 0 0
    outer loop
      vertex 20 20 0
      vertex 20 -20 2
      vertex 20 -20 0
    endloop
  endfacet
  facet normal -0 0 1
    outer loop
      vertex 2 20 2
      vertex 20 -20 2
      vertex 20 20 2
    endloop
  endfacet
  facet normal -0 0 1
    outer loop
      vertex 0 20 2
      vertex 20 -20 2
      vertex 2 20 2
    endloop
  endfacet
  facet normal 0 0 1
    outer loop
      vertex -20 -20 2
      vertex 0 20 2
      vertex -20 20 2
    endloop
  endfacet
  facet normal 0 0 1
    outer loop
      vertex 0 20 2
      vertex -20 -20 2
      vertex 20 -20 2
    endloop
  endfacet
  facet normal 0 0 -1
    outer loop
      vertex -20 -20 0
      vertex 20 20 0
      vertex 20 -20 0
    endloop
  endfacet
  facet normal -0 0 -1
    outer loop
      vertex 20 20 0
      vertex -20 -20 0
      vertex -20 20 0
    endloop
  endfacet
  facet normal -1 0 0
    outer loop
      vertex -20 -20 0
      vertex -20 20 2
      vertex -20 20 0
    endloop
  endfacet
  facet normal -1 -0 0
    outer loop
      vertex -20 20 2
      vertex -20 -20 0
      vertex -20 -20 2
    endloop
  endfacet
  facet normal 0 1 -0
    outer loop
      vertex 20 20 0
      vertex 2 20 2
      vertex 20 20 2
    endloop
  endfacet
  facet normal 0 1 0
    outer loop
      vertex 2 20 2
      vertex 20 20 0
      vertex 0 20 2
    endloop
  endfacet
  facet normal 0 1 0
    outer loop
      vertex -20 20 0
      vertex 0 20 2
      vertex 20 20 0
    endloop
  endfacet
  facet normal 0 1 0
    outer loop
      vertex 0 20 2
      vertex -20 20 0
      vertex -20 20 2
    endloop
  endfacet
  facet normal 0 -1 0
    outer loop
      vertex -20 -20 0
      vertex 20 -20 2
      vertex -20 -20 2
    endloop
  endfacet
  facet normal 0 -1 -0
    outer loop
      vertex 20 -20 2
      vertex -20 -20 0
      vertex 20 -20 0
    endloop
  endfacet
  facet normal 1 -0 0
    outer loop
      vertex 2 20 4
      vertex 2 60 2
      vertex 2 60 4
    endloop
  endfacet
  facet normal 1 0 0
    outer loop
      vertex 2 60 2
      vertex 2 20 4
      vertex 2 20 2
    endloop
  endfacet
  facet normal -0 0 1
    outer loop
      vertex 0 60 4
      vertex 2 20 4
      vertex 2 60 4
    endloop
  endfacet
  facet normal 0 0 1
    outer loop
      vertex 2 20 4
      vertex 0 60 4
      vertex 0 20 4
    endloop
  endfacet
  facet normal 0 0 -1
    outer loop
      vertex 0 20 2
      vertex 2 60 2
      vertex 2 20 2
    endloop
  endfacet
  facet normal -0 0 -1
    outer loop
      vertex 2 60 2
      vertex 0 20 2
      vertex 0 60 2
    endloop
  endfacet
  facet normal -1 0 0
    outer loop
      vertex 0 20 2
      vertex 0 60 4
      vertex 0 60 2
    endloop
  endfacet
  facet normal -1 -0 0
    outer loop
      vertex 0 60 4
      vertex 0 20 2
      vertex 0 20 4
    endloop
  endfacet
  facet normal 0 1 -0
    outer loop
      vertex 2 60 2
      vertex 0 60 4
      vertex 2 60 4
    endloop
  endfacet
  facet normal 0 1 0
    outer loop
      vertex 0 60 4
      vertex 2 60 2
      vertex 0 60 2
    endloop
  endfacet
  facet normal 0 -1 0
    outer loop
      vertex 0 20 2
      vertex 2 20 4
      vertex 0 20 4
    endloop
  endfacet
  facet normal 0 -1 -0
    outer loop
      vertex 2 20 4
      vertex 0 20 2
      vertex 2 20 2
    endloop
  endfacet
endsolid OpenSCAD_Model
