solid OpenSCAD_Model
  facet normal 1 -0 0
    outer loop
      vertex 25 -5 0.0499992
      vertex 25 5 -0.0499992
      vertex 25 5 0.0499992
    endloop
  endfacet
  facet normal 1 0 0
    outer loop
      vertex 25 5 -0.0499992
      vertex 25 -5 0.0499992
      vertex 25 -5 -0.0499992
    endloop
  endfacet
  facet normal 0 0 1
    outer loop
      vertex 25 5 0.0499992
      vertex 24.9 4.9 0.0499992
      vertex 25 -5 0.0499992
    endloop
  endfacet
  facet normal 0 0 1
    outer loop
      vertex 25 5 0.0499992
      vertex -24.9 4.9 0.0499992
      vertex 24.9 4.9 0.0499992
    endloop
  endfacet
  facet normal 0 0 1
    outer loop
      vertex -24.9 4.9 0.0499992
      vertex -25 5 0.0499992
      vertex -24.9 -4.9 0.0499992
    endloop
  endfacet
  facet normal -0 0 1
    outer loop
      vertex -25 5 0.0499992
      vertex -24.9 4.9 0.0499992
      vertex 25 5 0.0499992
    endloop
  endfacet
  facet normal -0 0 1
    outer loop
      vertex 24.9 -4.9 0.0499992
      vertex 25 -5 0.0499992
      vertex 24.9 4.9 0.0499992
    endloop
  endfacet
  facet normal -0 0 1
    outer loop
      vertex -24.9 -4.9 0.0499992
      vertex 25 -5 0.0499992
      vertex 24.9 -4.9 0.0499992
    endloop
  endfacet
  facet normal 0 0 1
    outer loop
      vertex -24.9 -4.9 0.0499992
      vertex -25 -5 0.0499992
      vertex 25 -5 0.0499992
    endloop
  endfacet
  facet normal 0 0 1
    outer loop
      vertex -25 -5 0.0499992
      vertex -24.9 -4.9 0.0499992
      vertex -25 5 0.0499992
    endloop
  endfacet
  facet normal 0 0 -1
    outer loop
      vertex 25 -5 -0.0499992
      vertex 24.9 -4.9 -0.0499992
      vertex 25 5 -0.0499992
    endloop
  endfacet
  facet normal 0 0 -1
    outer loop
      vertex 25 -5 -0.0499992
      vertex -24.9 -4.9 -0.0499992
      vertex 24.9 -4.9 -0.0499992
    endloop
  endfacet
  facet normal -0 0 -1
    outer loop
      vertex -24.9 -4.9 -0.0499992
      vertex -25 -5 -0.0499992
      vertex -24.9 4.9 -0.0499992
    endloop
  endfacet
  facet normal 0 0 -1
    outer loop
      vertex -25 -5 -0.0499992
      vertex -24.9 -4.9 -0.0499992
      vertex 25 -5 -0.0499992
    endloop
  endfacet
  facet normal 0 0 -1
    outer loop
      vertex 24.9 4.9 -0.0499992
      vertex 25 5 -0.0499992
      vertex 24.9 -4.9 -0.0499992
    endloop
  endfacet
  facet normal 0 0 -1
    outer loop
      vertex -24.9 4.9 -0.0499992
      vertex 25 5 -0.0499992
      vertex 24.9 4.9 -0.0499992
    endloop
  endfacet
  facet normal 0 0 -1
    outer loop
      vertex -24.9 4.9 -0.0499992
      vertex -25 5 -0.0499992
      vertex 25 5 -0.0499992
    endloop
  endfacet
  facet normal 0 0 -1
    outer loop
      vertex -25 5 -0.0499992
      vertex -24.9 4.9 -0.0499992
      vertex -25 -5 -0.0499992
    endloop
  endfacet
  facet normal -1 0 0
    outer loop
      vertex -25 -5 -0.0499992
      vertex -25 5 0.0499992
      vertex -25 5 -0.0499992
    endloop
  endfacet
  facet normal -1 -0 0
    outer loop
      vertex -25 5 0.0499992
      vertex -25 -5 -0.0499992
      vertex -25 -5 0.0499992
    endloop
  endfacet
  facet normal 0 1 -0
    outer loop
      vertex 25 5 -0.0499992
      vertex -25 5 0.0499992
      vertex 25 5 0.0499992
    endloop
  endfacet
  facet normal 0 1 0
    outer loop
      vertex -25 5 0.0499992
      vertex 25 5 -0.0499992
      vertex -25 5 -0.0499992
    endloop
  endfacet
  facet normal 0 -1 0
    outer loop
      vertex -25 -5 -0.0499992
      vertex 25 -5 0.0499992
      vertex -25 -5 0.0499992
    endloop
  endfacet
  facet normal 0 -1 -0
    outer loop
      vertex 25 -5 0.0499992
      vertex -25 -5 -0.0499992
      vertex 25 -5 -0.0499992
    endloop
  endfacet
  facet normal -1 0 0
    outer loop
      vertex 24.9 -4.9 -0.0499992
      vertex 24.9 4.9 0.0499992
      vertex 24.9 4.9 -0.0499992
    endloop
  endfacet
  facet normal -1 -0 0
    outer loop
      vertex 24.9 4.9 0.0499992
      vertex 24.9 -4.9 -0.0499992
      vertex 24.9 -4.9 0.0499992
    endloop
  endfacet
  facet normal 1 -0 0
    outer loop
      vertex -24.9 -4.9 0.0499992
      vertex -24.9 4.9 -0.0499992
      vertex -24.9 4.9 0.0499992
    endloop
  endfacet
  facet normal 1 0 0
    outer loop
      vertex -24.9 4.9 -0.0499992
      vertex -24.9 -4.9 0.0499992
      vertex -24.9 -4.9 -0.0499992
    endloop
  endfacet
  facet normal 0 -1 0
    outer loop
      vertex -24.9 4.9 -0.0499992
      vertex 24.9 4.9 0.0499992
      vertex -24.9 4.9 0.0499992
    endloop
  endfacet
  facet normal 0 -1 -0
    outer loop
      vertex 24.9 4.9 0.0499992
      vertex -24.9 4.9 -0.0499992
      vertex 24.9 4.9 -0.0499992
    endloop
  endfacet
  facet normal 0 1 -0
    outer loop
      vertex 24.9 -4.9 -0.0499992
      vertex -24.9 -4.9 0.0499992
      vertex 24.9 -4.9 0.0499992
    endloop
  endfacet
  facet normal 0 1 0
    outer loop
      vertex -24.9 -4.9 0.0499992
      vertex 24.9 -4.9 -0.0499992
      vertex -24.9 -4.9 -0.0499992
    endloop
  endfacet
endsolid OpenSCAD_Model
