solid OpenSCAD_Model
  facet normal 1 0 0
    outer loop
      vertex 0.0999994 0 0.5
      vertex 0.0999994 0.0999994 0.5
      vertex 0.0999994 0.0999994 0.599999
    endloop
  endfacet
  facet normal 1 0 0
    outer loop
      vertex 0.0999994 0.0999994 0.5
      vertex 0.0999994 0 0.5
      vertex 0.0999994 0.0999994 0.299999
    endloop
  endfacet
  facet normal 1 0 0
    outer loop
      vertex 0.0999994 0 0.5
      vertex 0.0999994 0.0999994 0.599999
      vertex 0.0999994 0 0.599999
    endloop
  endfacet
  facet normal 1 0 0
    outer loop
      vertex 0.0999994 0 0
      vertex 0.0999994 0.0999994 0.299999
      vertex 0.0999994 0 0.5
    endloop
  endfacet
  facet normal 1 0 0
    outer loop
      vertex 0.0999994 0.0999994 0.299999
      vertex 0.0999994 0 0
      vertex 0.0999994 0.0999994 0
    endloop
  endfacet
  facet normal 1 -0 0
    outer loop
      vertex 0.0999994 0 1
      vertex 0.0999994 0.0999994 0.7
      vertex 0.0999994 0.0999994 1
    endloop
  endfacet
  facet normal 1 0 0
    outer loop
      vertex 0.0999994 0.0999994 0.7
      vertex 0.0999994 0 1
      vertex 0.0999994 0 0.7
    endloop
  endfacet
  facet normal 0 0 -1
    outer loop
      vertex 0 0 0
      vertex 0.0999994 0.0999994 0
      vertex 0.0999994 0 0
    endloop
  endfacet
  facet normal -0 0 -1
    outer loop
      vertex 0.0999994 0.0999994 0
      vertex 0 0 0
      vertex 0 0.0999994 0
    endloop
  endfacet
  facet normal -1 0 0
    outer loop
      vertex 0 0 0
      vertex 0 0.0999994 0.299999
      vertex 0 0.0999994 0
    endloop
  endfacet
  facet normal -1 -0 0
    outer loop
      vertex 0 0.0999994 0.299999
      vertex 0 0 0
      vertex 0 0.0999994 0.5
    endloop
  endfacet
  facet normal -1 0 0
    outer loop
      vertex 0 0 1
      vertex 0 0.0999994 0.5
      vertex 0 0 0
    endloop
  endfacet
  facet normal -1 0 0
    outer loop
      vertex 0 0.0999994 0.5
      vertex 0 0 1
      vertex 0 0.0999994 0.599999
    endloop
  endfacet
  facet normal -1 0 0
    outer loop
      vertex 0 0.0999994 0.599999
      vertex 0 0 1
      vertex 0 0.0999994 0.7
    endloop
  endfacet
  facet normal -1 0 0
    outer loop
      vertex 0 0.0999994 0.7
      vertex 0 0 1
      vertex 0 0.0999994 1
    endloop
  endfacet
  facet normal -1 0 0
    outer loop
      vertex 0 0.0999994 0.299999
      vertex 0 0.2 0.5
      vertex 0 0.2 0.299999
    endloop
  endfacet
  facet normal -1 -0 0
    outer loop
      vertex 0 0.2 0.5
      vertex 0 0.0999994 0.299999
      vertex 0 0.0999994 0.5
    endloop
  endfacet
  facet normal -1 0 0
    outer loop
      vertex 0 0.0999994 0.599999
      vertex 0 0.2 0.7
      vertex 0 0.2 0.599999
    endloop
  endfacet
  facet normal -1 -0 0
    outer loop
      vertex 0 0.2 0.7
      vertex 0 0.0999994 0.599999
      vertex 0 0.0999994 0.7
    endloop
  endfacet
  facet normal 0 1 -0
    outer loop
      vertex 0.0999994 0.0999994 0
      vertex 0 0.0999994 0.299999
      vertex 0.0999994 0.0999994 0.299999
    endloop
  endfacet
  facet normal 0 1 0
    outer loop
      vertex 0 0.0999994 0.299999
      vertex 0.0999994 0.0999994 0
      vertex 0 0.0999994 0
    endloop
  endfacet
  facet normal 0 1 -0
    outer loop
      vertex 0.0999994 0.0999994 0.7
      vertex 0 0.0999994 1
      vertex 0.0999994 0.0999994 1
    endloop
  endfacet
  facet normal 0 1 0
    outer loop
      vertex 0 0.0999994 1
      vertex 0.0999994 0.0999994 0.7
      vertex 0 0.0999994 0.7
    endloop
  endfacet
  facet normal 0 1 -0
    outer loop
      vertex 0.0999994 0.0999994 0.5
      vertex 0 0.0999994 0.599999
      vertex 0.0999994 0.0999994 0.599999
    endloop
  endfacet
  facet normal 0 1 0
    outer loop
      vertex 0 0.0999994 0.599999
      vertex 0.0999994 0.0999994 0.5
      vertex 0 0.0999994 0.5
    endloop
  endfacet
  facet normal 0 -1 0
    outer loop
      vertex 0.0999994 0.0999994 0.299999
      vertex 0.799999 0.0999994 0.5
      vertex 0.0999994 0.0999994 0.5
    endloop
  endfacet
  facet normal 0 -1 -0
    outer loop
      vertex 0.799999 0.0999994 0.5
      vertex 0.0999994 0.0999994 0.299999
      vertex 0.799999 0.0999994 0.299999
    endloop
  endfacet
  facet normal 0 -1 0
    outer loop
      vertex 0 0 1
      vertex 0.0999994 0 0.7
      vertex 0.0999994 0 1
    endloop
  endfacet
  facet normal 0 -1 0
    outer loop
      vertex 0.0999994 0 0.7
      vertex 0.0999994 0 0.599999
      vertex 0.2 0 0.7
    endloop
  endfacet
  facet normal 0 -1 0
    outer loop
      vertex 0 0 1
      vertex 0.0999994 0 0.599999
      vertex 0.0999994 0 0.7
    endloop
  endfacet
  facet normal 0 -1 0
    outer loop
      vertex 0 0 1
      vertex 0.0999994 0 0.5
      vertex 0.0999994 0 0.599999
    endloop
  endfacet
  facet normal 0 -1 0
    outer loop
      vertex 0 0 0
      vertex 0.0999994 0 0.5
      vertex 0 0 1
    endloop
  endfacet
  facet normal 0 -1 -0
    outer loop
      vertex 0.0999994 0 0.5
      vertex 0 0 0
      vertex 0.0999994 0 0
    endloop
  endfacet
  facet normal 0 -1 -0
    outer loop
      vertex 0.2 0 0.7
      vertex 0.0999994 0 0.599999
      vertex 0.2 0 0.599999
    endloop
  endfacet
  facet normal -0 0 1
    outer loop
      vertex 0 0.0999994 1
      vertex 0.0999994 0 1
      vertex 0.0999994 0.0999994 1
    endloop
  endfacet
  facet normal 0 0 1
    outer loop
      vertex 0.0999994 0 1
      vertex 0 0.0999994 1
      vertex 0 0 1
    endloop
  endfacet
  facet normal -1 0 0
    outer loop
      vertex 0.0999994 -0.4 0.5
      vertex 0.0999994 0 0.599999
      vertex 0.0999994 0 0.5
    endloop
  endfacet
  facet normal -1 -0 0
    outer loop
      vertex 0.0999994 0 0.599999
      vertex 0.0999994 -0.4 0.5
      vertex 0.0999994 -0.4 0.599999
    endloop
  endfacet
  facet normal 1 -0 0
    outer loop
      vertex 0.299999 -0.4 0.599999
      vertex 0.299999 0 0.5
      vertex 0.299999 0 0.599999
    endloop
  endfacet
  facet normal 1 0 0
    outer loop
      vertex 0.299999 0 0.5
      vertex 0.299999 -0.4 0.599999
      vertex 0.299999 -0.4 0.5
    endloop
  endfacet
  facet normal 0 -1 0
    outer loop
      vertex 0.0999994 -0.4 0.5
      vertex 0.299999 -0.4 0.599999
      vertex 0.0999994 -0.4 0.599999
    endloop
  endfacet
  facet normal 0 -1 -0
    outer loop
      vertex 0.299999 -0.4 0.599999
      vertex 0.0999994 -0.4 0.5
      vertex 0.299999 -0.4 0.5
    endloop
  endfacet
  facet normal 0 1 -0
    outer loop
      vertex 0.299999 0 0.5
      vertex 0.2 0 0.599999
      vertex 0.299999 0 0.599999
    endloop
  endfacet
  facet normal 0 1 0
    outer loop
      vertex 0.0999994 0 0.5
      vertex 0.2 0 0.599999
      vertex 0.299999 0 0.5
    endloop
  endfacet
  facet normal 0 1 0
    outer loop
      vertex 0.2 0 0.599999
      vertex 0.0999994 0 0.5
      vertex 0.0999994 0 0.599999
    endloop
  endfacet
  facet normal 0 0 -1
    outer loop
      vertex 0.0999994 -0.4 0.5
      vertex 0.299999 0 0.5
      vertex 0.299999 -0.4 0.5
    endloop
  endfacet
  facet normal -0 0 -1
    outer loop
      vertex 0.299999 0 0.5
      vertex 0.0999994 -0.4 0.5
      vertex 0.0999994 0 0.5
    endloop
  endfacet
  facet normal -0 0 1
    outer loop
      vertex 0.2 0 0.599999
      vertex 0.299999 -0.4 0.599999
      vertex 0.299999 0 0.599999
    endloop
  endfacet
  facet normal 0 0 1
    outer loop
      vertex 0.0999994 -0.4 0.599999
      vertex 0.2 0 0.599999
      vertex 0.0999994 0 0.599999
    endloop
  endfacet
  facet normal 0 0 1
    outer loop
      vertex 0.2 0 0.599999
      vertex 0.0999994 -0.4 0.599999
      vertex 0.299999 -0.4 0.599999
    endloop
  endfacet
  facet normal 0 0 -1
    outer loop
      vertex 0.0999994 0.0999994 0.299999
      vertex 0.799999 0.2 0.299999
      vertex 0.799999 0.0999994 0.299999
    endloop
  endfacet
  facet normal 0 0 -1
    outer loop
      vertex 0 0.2 0.299999
      vertex 0.0999994 0.0999994 0.299999
      vertex 0 0.0999994 0.299999
    endloop
  endfacet
  facet normal 0 0 -1
    outer loop
      vertex 0.0999994 0.0999994 0.299999
      vertex 0 0.2 0.299999
      vertex 0.799999 0.2 0.299999
    endloop
  endfacet
  facet normal 1 -0 0
    outer loop
      vertex 0.799999 0.0999994 0.5
      vertex 0.799999 0.2 0.299999
      vertex 0.799999 0.2 0.5
    endloop
  endfacet
  facet normal 1 0 0
    outer loop
      vertex 0.799999 0.2 0.299999
      vertex 0.799999 0.0999994 0.5
      vertex 0.799999 0.0999994 0.299999
    endloop
  endfacet
  facet normal 0 0 1
    outer loop
      vertex 0.799999 0.2 0.5
      vertex 0.0999994 0.0999994 0.5
      vertex 0.799999 0.0999994 0.5
    endloop
  endfacet
  facet normal -0 0 1
    outer loop
      vertex 0 0.2 0.5
      vertex 0.0999994 0.0999994 0.5
      vertex 0.799999 0.2 0.5
    endloop
  endfacet
  facet normal 0 0 1
    outer loop
      vertex 0.0999994 0.0999994 0.5
      vertex 0 0.2 0.5
      vertex 0 0.0999994 0.5
    endloop
  endfacet
  facet normal 0 1 -0
    outer loop
      vertex 0.799999 0.2 0.299999
      vertex 0 0.2 0.5
      vertex 0.799999 0.2 0.5
    endloop
  endfacet
  facet normal 0 1 0
    outer loop
      vertex 0 0.2 0.5
      vertex 0.799999 0.2 0.299999
      vertex 0 0.2 0.299999
    endloop
  endfacet
  facet normal 1 -0 0
    outer loop
      vertex 0.2 0 0.7
      vertex 0.2 0.2 0.599999
      vertex 0.2 0.2 0.7
    endloop
  endfacet
  facet normal 1 0 0
    outer loop
      vertex 0.2 0.2 0.599999
      vertex 0.2 0 0.7
      vertex 0.2 0 0.599999
    endloop
  endfacet
  facet normal 0 0 1
    outer loop
      vertex 0.2 0.2 0.7
      vertex 0.0999994 0.0999994 0.7
      vertex 0.2 0 0.7
    endloop
  endfacet
  facet normal -0 0 1
    outer loop
      vertex 0 0.2 0.7
      vertex 0.0999994 0.0999994 0.7
      vertex 0.2 0.2 0.7
    endloop
  endfacet
  facet normal 0 0 1
    outer loop
      vertex 0.0999994 0.0999994 0.7
      vertex 0 0.2 0.7
      vertex 0 0.0999994 0.7
    endloop
  endfacet
  facet normal 0 0 1
    outer loop
      vertex 0.2 0 0.7
      vertex 0.0999994 0.0999994 0.7
      vertex 0.0999994 0 0.7
    endloop
  endfacet
  facet normal 0 0 -1
    outer loop
      vertex 0.0999994 0.0999994 0.599999
      vertex 0.2 0 0.599999
      vertex 0.0999994 0 0.599999
    endloop
  endfacet
  facet normal 0 0 -1
    outer loop
      vertex 0.2 0 0.599999
      vertex 0.0999994 0.0999994 0.599999
      vertex 0.2 0.2 0.599999
    endloop
  endfacet
  facet normal 0 0 -1
    outer loop
      vertex 0 0.2 0.599999
      vertex 0.0999994 0.0999994 0.599999
      vertex 0 0.0999994 0.599999
    endloop
  endfacet
  facet normal 0 0 -1
    outer loop
      vertex 0.0999994 0.0999994 0.599999
      vertex 0 0.2 0.599999
      vertex 0.2 0.2 0.599999
    endloop
  endfacet
  facet normal 0 1 -0
    outer loop
      vertex 0.2 0.2 0.599999
      vertex 0 0.2 0.7
      vertex 0.2 0.2 0.7
    endloop
  endfacet
  facet normal 0 1 0
    outer loop
      vertex 0 0.2 0.7
      vertex 0.2 0.2 0.599999
      vertex 0 0.2 0.599999
    endloop
  endfacet
endsolid OpenSCAD_Model
