solid OpenSCAD_Model
  facet normal 1 -0 0
    outer loop
      vertex 5 0 60
      vertex 5 0.5 0
      vertex 5 0.5 60
    endloop
  endfacet
  facet normal 1 0 0
    outer loop
      vertex 5 0.5 0
      vertex 5 0 60
      vertex 5 0 0
    endloop
  endfacet
  facet normal 0 0 1
    outer loop
      vertex 0.5 5 60
      vertex 0 5 60
      vertex 0.5 0.5 60
    endloop
  endfacet
  facet normal -0 0 1
    outer loop
      vertex 0.5 0.5 60
      vertex 5 0 60
      vertex 5 0.5 60
    endloop
  endfacet
  facet normal 0 0 1
    outer loop
      vertex 0.5 0.5 60
      vertex 0 0 60
      vertex 5 0 60
    endloop
  endfacet
  facet normal 0 0 1
    outer loop
      vertex 0 0 60
      vertex 0.5 0.5 60
      vertex 0 5 60
    endloop
  endfacet
  facet normal 0 0 -1
    outer loop
      vertex 5 0 0
      vertex 0.5 0.5 0
      vertex 5 0.5 0
    endloop
  endfacet
  facet normal 0 0 -1
    outer loop
      vertex 0 0 0
      vertex 0.5 0.5 0
      vertex 5 0 0
    endloop
  endfacet
  facet normal 0 0 -1
    outer loop
      vertex 0 5 0
      vertex 0.5 0.5 0
      vertex 0 0 0
    endloop
  endfacet
  facet normal 0 0 -1
    outer loop
      vertex 0.5 0.5 0
      vertex 0 5 0
      vertex 0.5 5 0
    endloop
  endfacet
  facet normal -1 0 0
    outer loop
      vertex 0 0 0
      vertex 0 5 60
      vertex 0 5 0
    endloop
  endfacet
  facet normal -1 -0 0
    outer loop
      vertex 0 5 60
      vertex 0 0 0
      vertex 0 0 60
    endloop
  endfacet
  facet normal 0 1 -0
    outer loop
      vertex 0.5 5 0
      vertex 0 5 60
      vertex 0.5 5 60
    endloop
  endfacet
  facet normal 0 1 0
    outer loop
      vertex 0 5 60
      vertex 0.5 5 0
      vertex 0 5 0
    endloop
  endfacet
  facet normal 0 -1 0
    outer loop
      vertex 0 0 0
      vertex 5 0 60
      vertex 0 0 60
    endloop
  endfacet
  facet normal 0 -1 -0
    outer loop
      vertex 5 0 60
      vertex 0 0 0
      vertex 5 0 0
    endloop
  endfacet
  facet normal 1 -0 0
    outer loop
      vertex 0.5 0.5 60
      vertex 0.5 5 0
      vertex 0.5 5 60
    endloop
  endfacet
  facet normal 1 0 0
    outer loop
      vertex 0.5 5 0
      vertex 0.5 0.5 60
      vertex 0.5 0.5 0
    endloop
  endfacet
  facet normal 0 1 -0
    outer loop
      vertex 5 0.5 0
      vertex 0.5 0.5 60
      vertex 5 0.5 60
    endloop
  endfacet
  facet normal 0 1 0
    outer loop
      vertex 0.5 0.5 60
      vertex 5 0.5 0
      vertex 0.5 0.5 0
    endloop
  endfacet
  facet normal 1 -0 0
    outer loop
      vertex 40 0 60
      vertex 40 0.5 0
      vertex 40 0.5 60
    endloop
  endfacet
  facet normal 1 0 0
    outer loop
      vertex 40 0.5 0
      vertex 40 0 60
      vertex 40 0 0
    endloop
  endfacet
  facet normal 0 0 1
    outer loop
      vertex 35.5 5 60
      vertex 35 5 60
      vertex 35.5 0.5 60
    endloop
  endfacet
  facet normal -0 0 1
    outer loop
      vertex 35.5 0.5 60
      vertex 40 0 60
      vertex 40 0.5 60
    endloop
  endfacet
  facet normal 0 0 1
    outer loop
      vertex 35.5 0.5 60
      vertex 35 0 60
      vertex 40 0 60
    endloop
  endfacet
  facet normal 0 0 1
    outer loop
      vertex 35 0 60
      vertex 35.5 0.5 60
      vertex 35 5 60
    endloop
  endfacet
  facet normal 0 0 -1
    outer loop
      vertex 40 0 0
      vertex 35.5 0.5 0
      vertex 40 0.5 0
    endloop
  endfacet
  facet normal 0 0 -1
    outer loop
      vertex 35 0 0
      vertex 35.5 0.5 0
      vertex 40 0 0
    endloop
  endfacet
  facet normal 0 0 -1
    outer loop
      vertex 35 5 0
      vertex 35.5 0.5 0
      vertex 35 0 0
    endloop
  endfacet
  facet normal 0 0 -1
    outer loop
      vertex 35.5 0.5 0
      vertex 35 5 0
      vertex 35.5 5 0
    endloop
  endfacet
  facet normal -1 0 0
    outer loop
      vertex 35 0 0
      vertex 35 5 60
      vertex 35 5 0
    endloop
  endfacet
  facet normal -1 -0 0
    outer loop
      vertex 35 5 60
      vertex 35 0 0
      vertex 35 0 60
    endloop
  endfacet
  facet normal 0 1 -0
    outer loop
      vertex 35.5 5 0
      vertex 35 5 60
      vertex 35.5 5 60
    endloop
  endfacet
  facet normal 0 1 0
    outer loop
      vertex 35 5 60
      vertex 35.5 5 0
      vertex 35 5 0
    endloop
  endfacet
  facet normal 0 -1 0
    outer loop
      vertex 35 0 0
      vertex 40 0 60
      vertex 35 0 60
    endloop
  endfacet
  facet normal 0 -1 -0
    outer loop
      vertex 40 0 60
      vertex 35 0 0
      vertex 40 0 0
    endloop
  endfacet
  facet normal 1 -0 0
    outer loop
      vertex 35.5 0.5 60
      vertex 35.5 5 0
      vertex 35.5 5 60
    endloop
  endfacet
  facet normal 1 0 0
    outer loop
      vertex 35.5 5 0
      vertex 35.5 0.5 60
      vertex 35.5 0.5 0
    endloop
  endfacet
  facet normal 0 1 -0
    outer loop
      vertex 40 0.5 0
      vertex 35.5 0.5 60
      vertex 40 0.5 60
    endloop
  endfacet
  facet normal 0 1 0
    outer loop
      vertex 35.5 0.5 60
      vertex 40 0.5 0
      vertex 35.5 0.5 0
    endloop
  endfacet
  facet normal 1 -0 0
    outer loop
      vertex 5 35 60
      vertex 5 35.5 0
      vertex 5 35.5 60
    endloop
  endfacet
  facet normal 1 0 0
    outer loop
      vertex 5 35.5 0
      vertex 5 35 60
      vertex 5 35 0
    endloop
  endfacet
  facet normal 0 0 1
    outer loop
      vertex 0.5 40 60
      vertex 0 40 60
      vertex 0.5 35.5 60
    endloop
  endfacet
  facet normal -0 0 1
    outer loop
      vertex 0.5 35.5 60
      vertex 5 35 60
      vertex 5 35.5 60
    endloop
  endfacet
  facet normal 0 0 1
    outer loop
      vertex 0.5 35.5 60
      vertex 0 35 60
      vertex 5 35 60
    endloop
  endfacet
  facet normal 0 0 1
    outer loop
      vertex 0 35 60
      vertex 0.5 35.5 60
      vertex 0 40 60
    endloop
  endfacet
  facet normal 0 0 -1
    outer loop
      vertex 5 35 0
      vertex 0.5 35.5 0
      vertex 5 35.5 0
    endloop
  endfacet
  facet normal 0 0 -1
    outer loop
      vertex 0 35 0
      vertex 0.5 35.5 0
      vertex 5 35 0
    endloop
  endfacet
  facet normal 0 0 -1
    outer loop
      vertex 0 40 0
      vertex 0.5 35.5 0
      vertex 0 35 0
    endloop
  endfacet
  facet normal 0 0 -1
    outer loop
      vertex 0.5 35.5 0
      vertex 0 40 0
      vertex 0.5 40 0
    endloop
  endfacet
  facet normal -1 0 0
    outer loop
      vertex 0 35 0
      vertex 0 40 60
      vertex 0 40 0
    endloop
  endfacet
  facet normal -1 -0 0
    outer loop
      vertex 0 40 60
      vertex 0 35 0
      vertex 0 35 60
    endloop
  endfacet
  facet normal 0 1 -0
    outer loop
      vertex 0.5 40 0
      vertex 0 40 60
      vertex 0.5 40 60
    endloop
  endfacet
  facet normal 0 1 0
    outer loop
      vertex 0 40 60
      vertex 0.5 40 0
      vertex 0 40 0
    endloop
  endfacet
  facet normal 0 -1 0
    outer loop
      vertex 0 35 0
      vertex 5 35 60
      vertex 0 35 60
    endloop
  endfacet
  facet normal 0 -1 -0
    outer loop
      vertex 5 35 60
      vertex 0 35 0
      vertex 5 35 0
    endloop
  endfacet
  facet normal 1 -0 0
    outer loop
      vertex 0.5 35.5 60
      vertex 0.5 40 0
      vertex 0.5 40 60
    endloop
  endfacet
  facet normal 1 0 0
    outer loop
      vertex 0.5 40 0
      vertex 0.5 35.5 60
      vertex 0.5 35.5 0
    endloop
  endfacet
  facet normal 0 1 -0
    outer loop
      vertex 5 35.5 0
      vertex 0.5 35.5 60
      vertex 5 35.5 60
    endloop
  endfacet
  facet normal 0 1 0
    outer loop
      vertex 0.5 35.5 60
      vertex 5 35.5 0
      vertex 0.5 35.5 0
    endloop
  endfacet
  facet normal 1 -0 0
    outer loop
      vertex 40 35 60
      vertex 40 35.5 0
      vertex 40 35.5 60
    endloop
  endfacet
  facet normal 1 0 0
    outer loop
      vertex 40 35.5 0
      vertex 40 35 60
      vertex 40 35 0
    endloop
  endfacet
  facet normal 0 0 -1
    outer loop
      vertex 40 35.5 60
      vertex 57.5 17.5 60
      vertex 40 35 60
    endloop
  endfacet
  facet normal 0 0 -1
    outer loop
      vertex 57.5 17.5 60
      vertex 35 35 60
      vertex 40 35 60
    endloop
  endfacet
  facet normal -0 0 -1
    outer loop
      vertex 35 35 60
      vertex 17.5 17.5 60
      vertex 35 40 60
    endloop
  endfacet
  facet normal 0 0 -1
    outer loop
      vertex 17.5 17.5 60
      vertex 35 35 60
      vertex 57.5 17.5 60
    endloop
  endfacet
  facet normal 0 0 -1
    outer loop
      vertex 57.5 17.5 60
      vertex 40 35.5 60
      vertex 57.5 57.5 60
    endloop
  endfacet
  facet normal 0 0 -1
    outer loop
      vertex 35.5 40 60
      vertex 40 35.5 60
      vertex 35.5 35.5 60
    endloop
  endfacet
  facet normal 0 0 -1
    outer loop
      vertex 40 35.5 60
      vertex 35.5 40 60
      vertex 57.5 57.5 60
    endloop
  endfacet
  facet normal 0 0 -1
    outer loop
      vertex 17.5 57.5 60
      vertex 35.5 40 60
      vertex 35 40 60
    endloop
  endfacet
  facet normal 0 0 -1
    outer loop
      vertex 35.5 40 60
      vertex 17.5 57.5 60
      vertex 57.5 57.5 60
    endloop
  endfacet
  facet normal 0 0 -1
    outer loop
      vertex 17.5 57.5 60
      vertex 35 40 60
      vertex 17.5 17.5 60
    endloop
  endfacet
  facet normal 0 0 -1
    outer loop
      vertex 40 35 0
      vertex 35.5 35.5 0
      vertex 40 35.5 0
    endloop
  endfacet
  facet normal 0 0 -1
    outer loop
      vertex 35 35 0
      vertex 35.5 35.5 0
      vertex 40 35 0
    endloop
  endfacet
  facet normal 0 0 -1
    outer loop
      vertex 35 40 0
      vertex 35.5 35.5 0
      vertex 35 35 0
    endloop
  endfacet
  facet normal 0 0 -1
    outer loop
      vertex 35.5 35.5 0
      vertex 35 40 0
      vertex 35.5 40 0
    endloop
  endfacet
  facet normal -1 0 0
    outer loop
      vertex 35 35 0
      vertex 35 40 60
      vertex 35 40 0
    endloop
  endfacet
  facet normal -1 -0 0
    outer loop
      vertex 35 40 60
      vertex 35 35 0
      vertex 35 35 60
    endloop
  endfacet
  facet normal 0 1 -0
    outer loop
      vertex 35.5 40 0
      vertex 35 40 60
      vertex 35.5 40 60
    endloop
  endfacet
  facet normal 0 1 0
    outer loop
      vertex 35 40 60
      vertex 35.5 40 0
      vertex 35 40 0
    endloop
  endfacet
  facet normal 0 -1 0
    outer loop
      vertex 35 35 0
      vertex 40 35 60
      vertex 35 35 60
    endloop
  endfacet
  facet normal 0 -1 -0
    outer loop
      vertex 40 35 60
      vertex 35 35 0
      vertex 40 35 0
    endloop
  endfacet
  facet normal 1 -0 0
    outer loop
      vertex 35.5 35.5 60
      vertex 35.5 40 0
      vertex 35.5 40 60
    endloop
  endfacet
  facet normal 1 0 0
    outer loop
      vertex 35.5 40 0
      vertex 35.5 35.5 60
      vertex 35.5 35.5 0
    endloop
  endfacet
  facet normal 0 1 -0
    outer loop
      vertex 40 35.5 0
      vertex 35.5 35.5 60
      vertex 40 35.5 60
    endloop
  endfacet
  facet normal 0 1 0
    outer loop
      vertex 35.5 35.5 60
      vertex 40 35.5 0
      vertex 35.5 35.5 0
    endloop
  endfacet
  facet normal 1 0 0
    outer loop
      vertex 57.5 40 64
      vertex 57.5 17.5 62
      vertex 57.5 40 62
    endloop
  endfacet
  facet normal 1 -0 0
    outer loop
      vertex 57.5 0 64
      vertex 57.5 17.5 62
      vertex 57.5 40 64
    endloop
  endfacet
  facet normal 1 0 0
    outer loop
      vertex 57.5 17.5 62
      vertex 57.5 0 64
      vertex 57.5 0 62
    endloop
  endfacet
  facet normal 1 -0 0
    outer loop
      vertex 57.5 40 62
      vertex 57.5 57.5 60
      vertex 57.5 57.5 62
    endloop
  endfacet
  facet normal 1 0 0
    outer loop
      vertex 57.5 17.5 60
      vertex 57.5 40 62
      vertex 57.5 17.5 62
    endloop
  endfacet
  facet normal 1 0 0
    outer loop
      vertex 57.5 40 62
      vertex 57.5 17.5 60
      vertex 57.5 57.5 60
    endloop
  endfacet
  facet normal -0 0 1
    outer loop
      vertex 17.5 57.5 62
      vertex 57.5 40 62
      vertex 57.5 57.5 62
    endloop
  endfacet
  facet normal 0 0 1
    outer loop
      vertex 57.5 40 62
      vertex 17.5 57.5 62
      vertex 17.5 40 62
    endloop
  endfacet
  facet normal 0 0 -1
    outer loop
      vertex 17.5 0 62
      vertex 57.5 17.5 62
      vertex 57.5 0 62
    endloop
  endfacet
  facet normal -0 0 -1
    outer loop
      vertex 57.5 17.5 62
      vertex 17.5 0 62
      vertex 17.5 17.5 62
    endloop
  endfacet
  facet normal -1 0 0
    outer loop
      vertex 17.5 57.5 60
      vertex 17.5 40 62
      vertex 17.5 57.5 62
    endloop
  endfacet
  facet normal -1 0 0
    outer loop
      vertex 17.5 17.5 60
      vertex 17.5 40 62
      vertex 17.5 57.5 60
    endloop
  endfacet
  facet normal -1 0 0
    outer loop
      vertex 17.5 17.5 62
      vertex 17.5 40 62
      vertex 17.5 17.5 60
    endloop
  endfacet
  facet normal -1 0 0
    outer loop
      vertex 17.5 40 62
      vertex 17.5 17.5 62
      vertex 17.5 40 64
    endloop
  endfacet
  facet normal -1 0 0
    outer loop
      vertex 17.5 0 64
      vertex 17.5 17.5 62
      vertex 17.5 0 62
    endloop
  endfacet
  facet normal -1 0 0
    outer loop
      vertex 17.5 17.5 62
      vertex 17.5 0 64
      vertex 17.5 40 64
    endloop
  endfacet
  facet normal 0 1 -0
    outer loop
      vertex 57.5 57.5 60
      vertex 17.5 57.5 62
      vertex 57.5 57.5 62
    endloop
  endfacet
  facet normal 0 1 0
    outer loop
      vertex 17.5 57.5 62
      vertex 57.5 57.5 60
      vertex 17.5 57.5 60
    endloop
  endfacet
  facet normal 0 -1 0
    outer loop
      vertex 17.5 17.5 60
      vertex 57.5 17.5 62
      vertex 17.5 17.5 62
    endloop
  endfacet
  facet normal 0 -1 -0
    outer loop
      vertex 57.5 17.5 62
      vertex 17.5 17.5 60
      vertex 57.5 17.5 60
    endloop
  endfacet
  facet normal -0 0 1
    outer loop
      vertex 17.5 40 64
      vertex 57.5 0 64
      vertex 57.5 40 64
    endloop
  endfacet
  facet normal 0 0 1
    outer loop
      vertex 57.5 0 64
      vertex 17.5 40 64
      vertex 17.5 0 64
    endloop
  endfacet
  facet normal 0 1 -0
    outer loop
      vertex 57.5 40 62
      vertex 17.5 40 64
      vertex 57.5 40 64
    endloop
  endfacet
  facet normal 0 1 0
    outer loop
      vertex 17.5 40 64
      vertex 57.5 40 62
      vertex 17.5 40 62
    endloop
  endfacet
  facet normal 0 -1 0
    outer loop
      vertex 17.5 0 62
      vertex 57.5 0 64
      vertex 17.5 0 64
    endloop
  endfacet
  facet normal 0 -1 -0
    outer loop
      vertex 57.5 0 64
      vertex 17.5 0 62
      vertex 57.5 0 62
    endloop
  endfacet
endsolid OpenSCAD_Model
