solid OpenSCAD_Model
  facet normal 0.951059 0.309008 0
    outer loop
      vertex 14.6722 3.11868 5
      vertex 13.7032 6.10105 -5
      vertex 13.7032 6.10105 5
    endloop
  endfacet
  facet normal 0.951059 0.309008 0
    outer loop
      vertex 13.7032 6.10105 -5
      vertex 14.6722 3.11868 5
      vertex 14.6722 3.11868 -5
    endloop
  endfacet
  facet normal 0.994521 0.104533 0
    outer loop
      vertex 15 0 5
      vertex 14.6722 3.11868 -5
      vertex 14.6722 3.11868 5
    endloop
  endfacet
  facet normal 0.994521 0.104533 0
    outer loop
      vertex 14.6722 3.11868 -5
      vertex 15 0 5
      vertex 15 0 -5
    endloop
  endfacet
  facet normal 0.866029 0.499993 0
    outer loop
      vertex 13.7032 6.10105 5
      vertex 12.1353 8.81678 -5
      vertex 12.1353 8.81678 5
    endloop
  endfacet
  facet normal 0.866029 0.499993 0
    outer loop
      vertex 12.1353 8.81678 -5
      vertex 13.7032 6.10105 5
      vertex 13.7032 6.10105 -5
    endloop
  endfacet
  facet normal 0.587777 0.809023 -0
    outer loop
      vertex 10.037 11.1472 -5
      vertex 7.5 12.9904 5
      vertex 10.037 11.1472 5
    endloop
  endfacet
  facet normal 0.587777 0.809023 0
    outer loop
      vertex 7.5 12.9904 5
      vertex 10.037 11.1472 -5
      vertex 7.5 12.9904 -5
    endloop
  endfacet
  facet normal 0.951059 -0.309008 0
    outer loop
      vertex 13.7032 -6.10105 5
      vertex 14.6722 -3.11868 -5
      vertex 14.6722 -3.11868 5
    endloop
  endfacet
  facet normal 0.951059 -0.309008 0
    outer loop
      vertex 14.6722 -3.11868 -5
      vertex 13.7032 -6.10105 5
      vertex 13.7032 -6.10105 -5
    endloop
  endfacet
  facet normal 0.994521 -0.104533 0
    outer loop
      vertex 14.6722 -3.11868 5
      vertex 15 0 -5
      vertex 15 0 5
    endloop
  endfacet
  facet normal 0.994521 -0.104533 0
    outer loop
      vertex 15 0 -5
      vertex 14.6722 -3.11868 5
      vertex 14.6722 -3.11868 -5
    endloop
  endfacet
  facet normal 0.743148 0.669127 0
    outer loop
      vertex 12.1353 8.81678 5
      vertex 10.037 11.1472 -5
      vertex 10.037 11.1472 5
    endloop
  endfacet
  facet normal 0.743148 0.669127 0
    outer loop
      vertex 10.037 11.1472 -5
      vertex 12.1353 8.81678 5
      vertex 12.1353 8.81678 -5
    endloop
  endfacet
  facet normal -0.951059 -0.309008 0
    outer loop
      vertex -13.7032 -6.10105 -5
      vertex -14.6722 -3.11868 5
      vertex -14.6722 -3.11868 -5
    endloop
  endfacet
  facet normal -0.951059 -0.309008 0
    outer loop
      vertex -14.6722 -3.11868 5
      vertex -13.7032 -6.10105 -5
      vertex -13.7032 -6.10105 5
    endloop
  endfacet
  facet normal -0.743148 0.669127 0
    outer loop
      vertex -12.1353 8.81678 -5
      vertex -10.037 11.1472 5
      vertex -10.037 11.1472 -5
    endloop
  endfacet
  facet normal -0.743148 0.669127 0
    outer loop
      vertex -10.037 11.1472 5
      vertex -12.1353 8.81678 -5
      vertex -12.1353 8.81678 5
    endloop
  endfacet
  facet normal -0.951059 0.309008 0
    outer loop
      vertex -14.6722 3.11868 -5
      vertex -13.7032 6.10105 5
      vertex -13.7032 6.10105 -5
    endloop
  endfacet
  facet normal -0.951059 0.309008 0
    outer loop
      vertex -13.7032 6.10105 5
      vertex -14.6722 3.11868 -5
      vertex -14.6722 3.11868 5
    endloop
  endfacet
  facet normal 0.587777 -0.809023 0
    outer loop
      vertex 7.5 -12.9904 -5
      vertex 10.037 -11.1472 5
      vertex 7.5 -12.9904 5
    endloop
  endfacet
  facet normal 0.587777 -0.809023 0
    outer loop
      vertex 10.037 -11.1472 5
      vertex 7.5 -12.9904 -5
      vertex 10.037 -11.1472 -5
    endloop
  endfacet
  facet normal -0.587777 0.809023 0
    outer loop
      vertex -7.5 12.9904 -5
      vertex -10.037 11.1472 5
      vertex -7.5 12.9904 5
    endloop
  endfacet
  facet normal -0.587777 0.809023 0
    outer loop
      vertex -10.037 11.1472 5
      vertex -7.5 12.9904 -5
      vertex -10.037 11.1472 -5
    endloop
  endfacet
  facet normal 0 0 1
    outer loop
      vertex 10 0 5
      vertex 15 0 5
      vertex 14.6722 3.11868 5
    endloop
  endfacet
  facet normal 0 0 1
    outer loop
      vertex 9.78148 2.07912 5
      vertex 14.6722 3.11868 5
      vertex 13.7032 6.10105 5
    endloop
  endfacet
  facet normal 0 0 1
    outer loop
      vertex 15 0 5
      vertex 10 0 5
      vertex 14.6722 -3.11868 5
    endloop
  endfacet
  facet normal 0 0 1
    outer loop
      vertex 9.13545 4.06737 5
      vertex 13.7032 6.10105 5
      vertex 12.1353 8.81678 5
    endloop
  endfacet
  facet normal -0 0 1
    outer loop
      vertex 9.78148 -2.07912 5
      vertex 14.6722 -3.11868 5
      vertex 10 0 5
    endloop
  endfacet
  facet normal 0 0 1
    outer loop
      vertex 8.09017 5.87785 5
      vertex 12.1353 8.81678 5
      vertex 10.037 11.1472 5
    endloop
  endfacet
  facet normal 0 0 1
    outer loop
      vertex 14.6722 -3.11868 5
      vertex 9.78148 -2.07912 5
      vertex 13.7032 -6.10105 5
    endloop
  endfacet
  facet normal -0 0 1
    outer loop
      vertex 9.13545 -4.06737 5
      vertex 13.7032 -6.10105 5
      vertex 9.78148 -2.07912 5
    endloop
  endfacet
  facet normal 0 0 1
    outer loop
      vertex 14.6722 3.11868 5
      vertex 9.78148 2.07912 5
      vertex 10 0 5
    endloop
  endfacet
  facet normal 0 0 1
    outer loop
      vertex 13.7032 6.10105 5
      vertex 9.13545 4.06737 5
      vertex 9.78148 2.07912 5
    endloop
  endfacet
  facet normal 0 0 1
    outer loop
      vertex 12.1353 8.81678 5
      vertex 8.09017 5.87785 5
      vertex 9.13545 4.06737 5
    endloop
  endfacet
  facet normal 0 0 1
    outer loop
      vertex 6.69131 7.43145 5
      vertex 10.037 11.1472 5
      vertex 7.5 12.9904 5
    endloop
  endfacet
  facet normal 0 0 1
    outer loop
      vertex 10.037 11.1472 5
      vertex 6.69131 7.43145 5
      vertex 8.09017 5.87785 5
    endloop
  endfacet
  facet normal 0 0 1
    outer loop
      vertex 7.5 12.9904 5
      vertex 5 8.66025 5
      vertex 6.69131 7.43145 5
    endloop
  endfacet
  facet normal 0 0 1
    outer loop
      vertex 4.63525 14.2658 5
      vertex 5 8.66025 5
      vertex 7.5 12.9904 5
    endloop
  endfacet
  facet normal 0 0 1
    outer loop
      vertex 4.63525 14.2658 5
      vertex 3.09017 9.51056 5
      vertex 5 8.66025 5
    endloop
  endfacet
  facet normal 0 0 1
    outer loop
      vertex 1.56793 14.9178 5
      vertex 3.09017 9.51056 5
      vertex 4.63525 14.2658 5
    endloop
  endfacet
  facet normal 0 0 1
    outer loop
      vertex 1.56793 14.9178 5
      vertex 1.04528 9.94522 5
      vertex 3.09017 9.51056 5
    endloop
  endfacet
  facet normal 0 0 1
    outer loop
      vertex 1.56793 14.9178 5
      vertex -1.04528 9.94522 5
      vertex 1.04528 9.94522 5
    endloop
  endfacet
  facet normal -0 0 1
    outer loop
      vertex -1.56793 14.9178 5
      vertex -1.04528 9.94522 5
      vertex 1.56793 14.9178 5
    endloop
  endfacet
  facet normal 0 0 1
    outer loop
      vertex -1.56793 14.9178 5
      vertex -3.09017 9.51056 5
      vertex -1.04528 9.94522 5
    endloop
  endfacet
  facet normal -0 0 1
    outer loop
      vertex -4.63525 14.2658 5
      vertex -3.09017 9.51056 5
      vertex -1.56793 14.9178 5
    endloop
  endfacet
  facet normal 0 0 1
    outer loop
      vertex -4.63525 14.2658 5
      vertex -5 8.66025 5
      vertex -3.09017 9.51056 5
    endloop
  endfacet
  facet normal -0 0 1
    outer loop
      vertex -7.5 12.9904 5
      vertex -5 8.66025 5
      vertex -4.63525 14.2658 5
    endloop
  endfacet
  facet normal 0 0 1
    outer loop
      vertex -5 8.66025 5
      vertex -7.5 12.9904 5
      vertex -6.69131 7.43145 5
    endloop
  endfacet
  facet normal -0 0 1
    outer loop
      vertex -10.037 11.1472 5
      vertex -6.69131 7.43145 5
      vertex -7.5 12.9904 5
    endloop
  endfacet
  facet normal 0 0 1
    outer loop
      vertex -6.69131 7.43145 5
      vertex -10.037 11.1472 5
      vertex -8.09017 5.87785 5
    endloop
  endfacet
  facet normal -0 0 1
    outer loop
      vertex -12.1353 8.81678 5
      vertex -8.09017 5.87785 5
      vertex -10.037 11.1472 5
    endloop
  endfacet
  facet normal -0 0 1
    outer loop
      vertex -13.7032 6.10105 5
      vertex -9.13545 4.06737 5
      vertex -12.1353 8.81678 5
    endloop
  endfacet
  facet normal 0 0 1
    outer loop
      vertex -8.09017 5.87785 5
      vertex -12.1353 8.81678 5
      vertex -9.13545 4.06737 5
    endloop
  endfacet
  facet normal 0 0 1
    outer loop
      vertex 13.7032 -6.10105 5
      vertex 9.13545 -4.06737 5
      vertex 12.1353 -8.81678 5
    endloop
  endfacet
  facet normal -0 0 1
    outer loop
      vertex 8.09017 -5.87785 5
      vertex 12.1353 -8.81678 5
      vertex 9.13545 -4.06737 5
    endloop
  endfacet
  facet normal 0 0 1
    outer loop
      vertex 12.1353 -8.81678 5
      vertex 8.09017 -5.87785 5
      vertex 10.037 -11.1472 5
    endloop
  endfacet
  facet normal -0 0 1
    outer loop
      vertex 6.69131 -7.43145 5
      vertex 10.037 -11.1472 5
      vertex 8.09017 -5.87785 5
    endloop
  endfacet
  facet normal 0 0 1
    outer loop
      vertex 10.037 -11.1472 5
      vertex 6.69131 -7.43145 5
      vertex 7.5 -12.9904 5
    endloop
  endfacet
  facet normal -0 0 1
    outer loop
      vertex 5 -8.66025 5
      vertex 7.5 -12.9904 5
      vertex 6.69131 -7.43145 5
    endloop
  endfacet
  facet normal 0 0 1
    outer loop
      vertex 5 -8.66025 5
      vertex 4.63525 -14.2658 5
      vertex 7.5 -12.9904 5
    endloop
  endfacet
  facet normal -0 0 1
    outer loop
      vertex 3.09017 -9.51056 5
      vertex 4.63525 -14.2658 5
      vertex 5 -8.66025 5
    endloop
  endfacet
  facet normal 0 0 1
    outer loop
      vertex 3.09017 -9.51056 5
      vertex 1.56793 -14.9178 5
      vertex 4.63525 -14.2658 5
    endloop
  endfacet
  facet normal -0 0 1
    outer loop
      vertex 1.04528 -9.94522 5
      vertex 1.56793 -14.9178 5
      vertex 3.09017 -9.51056 5
    endloop
  endfacet
  facet normal -0 0 1
    outer loop
      vertex -1.04528 -9.94522 5
      vertex 1.56793 -14.9178 5
      vertex 1.04528 -9.94522 5
    endloop
  endfacet
  facet normal 0 0 1
    outer loop
      vertex -1.04528 -9.94522 5
      vertex -1.56793 -14.9178 5
      vertex 1.56793 -14.9178 5
    endloop
  endfacet
  facet normal 0 0 1
    outer loop
      vertex -3.09017 -9.51056 5
      vertex -1.56793 -14.9178 5
      vertex -1.04528 -9.94522 5
    endloop
  endfacet
  facet normal 0 0 1
    outer loop
      vertex -3.09017 -9.51056 5
      vertex -4.63525 -14.2658 5
      vertex -1.56793 -14.9178 5
    endloop
  endfacet
  facet normal 0 0 1
    outer loop
      vertex -5 -8.66025 5
      vertex -4.63525 -14.2658 5
      vertex -3.09017 -9.51056 5
    endloop
  endfacet
  facet normal 0 0 1
    outer loop
      vertex -7.5 -12.9904 5
      vertex -5 -8.66025 5
      vertex -6.69131 -7.43145 5
    endloop
  endfacet
  facet normal 0 0 1
    outer loop
      vertex -5 -8.66025 5
      vertex -7.5 -12.9904 5
      vertex -4.63525 -14.2658 5
    endloop
  endfacet
  facet normal 0 0 1
    outer loop
      vertex -10.037 -11.1472 5
      vertex -6.69131 -7.43145 5
      vertex -8.09017 -5.87785 5
    endloop
  endfacet
  facet normal 0 0 1
    outer loop
      vertex -12.1353 -8.81678 5
      vertex -8.09017 -5.87785 5
      vertex -9.13545 -4.06737 5
    endloop
  endfacet
  facet normal 0 0 1
    outer loop
      vertex -13.7032 -6.10105 5
      vertex -9.13545 -4.06737 5
      vertex -9.78148 -2.07912 5
    endloop
  endfacet
  facet normal 0 0 1
    outer loop
      vertex -6.69131 -7.43145 5
      vertex -10.037 -11.1472 5
      vertex -7.5 -12.9904 5
    endloop
  endfacet
  facet normal 0 0 1
    outer loop
      vertex -14.6722 -3.11868 5
      vertex -9.78148 -2.07912 5
      vertex -10 0 5
    endloop
  endfacet
  facet normal 0 0 1
    outer loop
      vertex -9.13545 4.06737 5
      vertex -13.7032 6.10105 5
      vertex -9.78148 2.07912 5
    endloop
  endfacet
  facet normal -0 0 1
    outer loop
      vertex -14.6722 3.11868 5
      vertex -9.78148 2.07912 5
      vertex -13.7032 6.10105 5
    endloop
  endfacet
  facet normal 0 0 1
    outer loop
      vertex -8.09017 -5.87785 5
      vertex -12.1353 -8.81678 5
      vertex -10.037 -11.1472 5
    endloop
  endfacet
  facet normal 0 0 1
    outer loop
      vertex -9.78148 2.07912 5
      vertex -14.6722 3.11868 5
      vertex -10 0 5
    endloop
  endfacet
  facet normal 0 0 1
    outer loop
      vertex -9.13545 -4.06737 5
      vertex -13.7032 -6.10105 5
      vertex -12.1353 -8.81678 5
    endloop
  endfacet
  facet normal 0 0 1
    outer loop
      vertex -15 0 5
      vertex -10 0 5
      vertex -14.6722 3.11868 5
    endloop
  endfacet
  facet normal 0 0 1
    outer loop
      vertex -9.78148 -2.07912 5
      vertex -14.6722 -3.11868 5
      vertex -13.7032 -6.10105 5
    endloop
  endfacet
  facet normal 0 0 1
    outer loop
      vertex -10 0 5
      vertex -15 0 5
      vertex -14.6722 -3.11868 5
    endloop
  endfacet
  facet normal -0.866029 0.499993 0
    outer loop
      vertex -13.7032 6.10105 -5
      vertex -12.1353 8.81678 5
      vertex -12.1353 8.81678 -5
    endloop
  endfacet
  facet normal -0.866029 0.499993 0
    outer loop
      vertex -12.1353 8.81678 5
      vertex -13.7032 6.10105 -5
      vertex -13.7032 6.10105 5
    endloop
  endfacet
  facet normal 0.866029 -0.499993 0
    outer loop
      vertex 12.1353 -8.81678 5
      vertex 13.7032 -6.10105 -5
      vertex 13.7032 -6.10105 5
    endloop
  endfacet
  facet normal 0.866029 -0.499993 0
    outer loop
      vertex 13.7032 -6.10105 -5
      vertex 12.1353 -8.81678 5
      vertex 12.1353 -8.81678 -5
    endloop
  endfacet
  facet normal 0 1 -0
    outer loop
      vertex 1.56793 14.9178 -5
      vertex -1.56793 14.9178 5
      vertex 1.56793 14.9178 5
    endloop
  endfacet
  facet normal 0 1 0
    outer loop
      vertex -1.56793 14.9178 5
      vertex 1.56793 14.9178 -5
      vertex -1.56793 14.9178 -5
    endloop
  endfacet
  facet normal -0.406718 0.913554 0
    outer loop
      vertex -4.63525 14.2658 -5
      vertex -7.5 12.9904 5
      vertex -4.63525 14.2658 5
    endloop
  endfacet
  facet normal -0.406718 0.913554 0
    outer loop
      vertex -7.5 12.9904 5
      vertex -4.63525 14.2658 -5
      vertex -7.5 12.9904 -5
    endloop
  endfacet
  facet normal -0.207918 -0.978146 0
    outer loop
      vertex -4.63525 -14.2658 -5
      vertex -1.56793 -14.9178 5
      vertex -4.63525 -14.2658 5
    endloop
  endfacet
  facet normal -0.207918 -0.978146 -0
    outer loop
      vertex -1.56793 -14.9178 5
      vertex -4.63525 -14.2658 -5
      vertex -1.56793 -14.9178 -5
    endloop
  endfacet
  facet normal 0 -1 0
    outer loop
      vertex -1.56793 -14.9178 -5
      vertex 1.56793 -14.9178 5
      vertex -1.56793 -14.9178 5
    endloop
  endfacet
  facet normal 0 -1 -0
    outer loop
      vertex 1.56793 -14.9178 5
      vertex -1.56793 -14.9178 -5
      vertex 1.56793 -14.9178 -5
    endloop
  endfacet
  facet normal -0.207918 0.978146 0
    outer loop
      vertex -1.56793 14.9178 -5
      vertex -4.63525 14.2658 5
      vertex -1.56793 14.9178 5
    endloop
  endfacet
  facet normal -0.207918 0.978146 0
    outer loop
      vertex -4.63525 14.2658 5
      vertex -1.56793 14.9178 -5
      vertex -4.63525 14.2658 -5
    endloop
  endfacet
  facet normal 0.207918 -0.978146 0
    outer loop
      vertex 1.56793 -14.9178 -5
      vertex 4.63525 -14.2658 5
      vertex 1.56793 -14.9178 5
    endloop
  endfacet
  facet normal 0.207918 -0.978146 0
    outer loop
      vertex 4.63525 -14.2658 5
      vertex 1.56793 -14.9178 -5
      vertex 4.63525 -14.2658 -5
    endloop
  endfacet
  facet normal 0.743148 -0.669127 0
    outer loop
      vertex 10.037 -11.1472 5
      vertex 12.1353 -8.81678 -5
      vertex 12.1353 -8.81678 5
    endloop
  endfacet
  facet normal 0.743148 -0.669127 0
    outer loop
      vertex 12.1353 -8.81678 -5
      vertex 10.037 -11.1472 5
      vertex 10.037 -11.1472 -5
    endloop
  endfacet
  facet normal 0.406718 -0.913554 0
    outer loop
      vertex 4.63525 -14.2658 -5
      vertex 7.5 -12.9904 5
      vertex 4.63525 -14.2658 5
    endloop
  endfacet
  facet normal 0.406718 -0.913554 0
    outer loop
      vertex 7.5 -12.9904 5
      vertex 4.63525 -14.2658 -5
      vertex 7.5 -12.9904 -5
    endloop
  endfacet
  facet normal -0.587777 -0.809023 0
    outer loop
      vertex -10.037 -11.1472 -5
      vertex -7.5 -12.9904 5
      vertex -10.037 -11.1472 5
    endloop
  endfacet
  facet normal -0.587777 -0.809023 -0
    outer loop
      vertex -7.5 -12.9904 5
      vertex -10.037 -11.1472 -5
      vertex -7.5 -12.9904 -5
    endloop
  endfacet
  facet normal -0.994521 0.104533 0
    outer loop
      vertex -15 0 -5
      vertex -14.6722 3.11868 5
      vertex -14.6722 3.11868 -5
    endloop
  endfacet
  facet normal -0.994521 0.104533 0
    outer loop
      vertex -14.6722 3.11868 5
      vertex -15 0 -5
      vertex -15 0 5
    endloop
  endfacet
  facet normal 0.207918 0.978146 -0
    outer loop
      vertex 4.63525 14.2658 -5
      vertex 1.56793 14.9178 5
      vertex 4.63525 14.2658 5
    endloop
  endfacet
  facet normal 0.207918 0.978146 0
    outer loop
      vertex 1.56793 14.9178 5
      vertex 4.63525 14.2658 -5
      vertex 1.56793 14.9178 -5
    endloop
  endfacet
  facet normal -0.866029 -0.499993 0
    outer loop
      vertex -12.1353 -8.81678 -5
      vertex -13.7032 -6.10105 5
      vertex -13.7032 -6.10105 -5
    endloop
  endfacet
  facet normal -0.866029 -0.499993 0
    outer loop
      vertex -13.7032 -6.10105 5
      vertex -12.1353 -8.81678 -5
      vertex -12.1353 -8.81678 5
    endloop
  endfacet
  facet normal 0.406718 0.913554 -0
    outer loop
      vertex 7.5 12.9904 -5
      vertex 4.63525 14.2658 5
      vertex 7.5 12.9904 5
    endloop
  endfacet
  facet normal 0.406718 0.913554 0
    outer loop
      vertex 4.63525 14.2658 5
      vertex 7.5 12.9904 -5
      vertex 4.63525 14.2658 -5
    endloop
  endfacet
  facet normal -0.994521 -0.104533 0
    outer loop
      vertex -14.6722 -3.11868 -5
      vertex -15 0 5
      vertex -15 0 -5
    endloop
  endfacet
  facet normal -0.994521 -0.104533 0
    outer loop
      vertex -15 0 5
      vertex -14.6722 -3.11868 -5
      vertex -14.6722 -3.11868 5
    endloop
  endfacet
  facet normal -0.743148 -0.669127 0
    outer loop
      vertex -10.037 -11.1472 -5
      vertex -12.1353 -8.81678 5
      vertex -12.1353 -8.81678 -5
    endloop
  endfacet
  facet normal -0.743148 -0.669127 0
    outer loop
      vertex -12.1353 -8.81678 5
      vertex -10.037 -11.1472 -5
      vertex -10.037 -11.1472 5
    endloop
  endfacet
  facet normal 0 0 -1
    outer loop
      vertex 13 0 -5
      vertex 15 0 -5
      vertex 14.6722 -3.11868 -5
    endloop
  endfacet
  facet normal 0 0 -1
    outer loop
      vertex 12.7159 -2.70285 -5
      vertex 14.6722 -3.11868 -5
      vertex 13.7032 -6.10105 -5
    endloop
  endfacet
  facet normal 0 0 -1
    outer loop
      vertex 15 0 -5
      vertex 13 0 -5
      vertex 14.6722 3.11868 -5
    endloop
  endfacet
  facet normal 0 0 -1
    outer loop
      vertex 12.7159 2.70285 -5
      vertex 14.6722 3.11868 -5
      vertex 13 0 -5
    endloop
  endfacet
  facet normal 0 0 -1
    outer loop
      vertex 14.6722 -3.11868 -5
      vertex 12.7159 -2.70285 -5
      vertex 13 0 -5
    endloop
  endfacet
  facet normal 0 0 -1
    outer loop
      vertex 11.8761 -5.28758 -5
      vertex 13.7032 -6.10105 -5
      vertex 12.1353 -8.81678 -5
    endloop
  endfacet
  facet normal 0 0 -1
    outer loop
      vertex 13.7032 -6.10105 -5
      vertex 11.8761 -5.28758 -5
      vertex 12.7159 -2.70285 -5
    endloop
  endfacet
  facet normal 0 0 -1
    outer loop
      vertex 12.1353 -8.81678 -5
      vertex 10.5172 -7.64121 -5
      vertex 11.8761 -5.28758 -5
    endloop
  endfacet
  facet normal 0 0 -1
    outer loop
      vertex 10.037 -11.1472 -5
      vertex 10.5172 -7.64121 -5
      vertex 12.1353 -8.81678 -5
    endloop
  endfacet
  facet normal 0 0 -1
    outer loop
      vertex 10.037 -11.1472 -5
      vertex 8.6987 -9.66088 -5
      vertex 10.5172 -7.64121 -5
    endloop
  endfacet
  facet normal 0 0 -1
    outer loop
      vertex 7.5 -12.9904 -5
      vertex 8.6987 -9.66088 -5
      vertex 10.037 -11.1472 -5
    endloop
  endfacet
  facet normal 0 0 -1
    outer loop
      vertex 7.5 -12.9904 -5
      vertex 6.5 -11.2583 -5
      vertex 8.6987 -9.66088 -5
    endloop
  endfacet
  facet normal 0 0 -1
    outer loop
      vertex 4.63525 -14.2658 -5
      vertex 6.5 -11.2583 -5
      vertex 7.5 -12.9904 -5
    endloop
  endfacet
  facet normal 0 0 -1
    outer loop
      vertex 4.63525 -14.2658 -5
      vertex 4.01722 -12.3637 -5
      vertex 6.5 -11.2583 -5
    endloop
  endfacet
  facet normal 0 0 -1
    outer loop
      vertex 1.56793 -14.9178 -5
      vertex 4.01722 -12.3637 -5
      vertex 4.63525 -14.2658 -5
    endloop
  endfacet
  facet normal 0 0 -1
    outer loop
      vertex 1.56793 -14.9178 -5
      vertex 1.35887 -12.9288 -5
      vertex 4.01722 -12.3637 -5
    endloop
  endfacet
  facet normal 0 0 -1
    outer loop
      vertex 1.56793 -14.9178 -5
      vertex -1.35887 -12.9288 -5
      vertex 1.35887 -12.9288 -5
    endloop
  endfacet
  facet normal 0 0 -1
    outer loop
      vertex -1.56793 -14.9178 -5
      vertex -1.35887 -12.9288 -5
      vertex 1.56793 -14.9178 -5
    endloop
  endfacet
  facet normal 0 0 -1
    outer loop
      vertex -1.56793 -14.9178 -5
      vertex -4.01722 -12.3637 -5
      vertex -1.35887 -12.9288 -5
    endloop
  endfacet
  facet normal 0 0 -1
    outer loop
      vertex -4.63525 -14.2658 -5
      vertex -4.01722 -12.3637 -5
      vertex -1.56793 -14.9178 -5
    endloop
  endfacet
  facet normal 0 0 -1
    outer loop
      vertex -4.63525 -14.2658 -5
      vertex -6.5 -11.2583 -5
      vertex -4.01722 -12.3637 -5
    endloop
  endfacet
  facet normal 0 0 -1
    outer loop
      vertex -7.5 -12.9904 -5
      vertex -6.5 -11.2583 -5
      vertex -4.63525 -14.2658 -5
    endloop
  endfacet
  facet normal 0 0 -1
    outer loop
      vertex -7.5 -12.9904 -5
      vertex -8.6987 -9.66088 -5
      vertex -6.5 -11.2583 -5
    endloop
  endfacet
  facet normal 0 0 -1
    outer loop
      vertex -10.037 -11.1472 -5
      vertex -8.6987 -9.66088 -5
      vertex -7.5 -12.9904 -5
    endloop
  endfacet
  facet normal 0 0 -1
    outer loop
      vertex -10.037 -11.1472 -5
      vertex -10.5172 -7.64121 -5
      vertex -8.6987 -9.66088 -5
    endloop
  endfacet
  facet normal 0 0 -1
    outer loop
      vertex -12.1353 -8.81678 -5
      vertex -10.5172 -7.64121 -5
      vertex -10.037 -11.1472 -5
    endloop
  endfacet
  facet normal -0 0 -1
    outer loop
      vertex -10.5172 -7.64121 -5
      vertex -12.1353 -8.81678 -5
      vertex -11.8761 -5.28758 -5
    endloop
  endfacet
  facet normal 0 0 -1
    outer loop
      vertex -13.7032 -6.10105 -5
      vertex -11.8761 -5.28758 -5
      vertex -12.1353 -8.81678 -5
    endloop
  endfacet
  facet normal -0 0 -1
    outer loop
      vertex -11.8761 -5.28758 -5
      vertex -13.7032 -6.10105 -5
      vertex -12.7159 -2.70285 -5
    endloop
  endfacet
  facet normal 0 0 -1
    outer loop
      vertex -14.6722 -3.11868 -5
      vertex -12.7159 -2.70285 -5
      vertex -13.7032 -6.10105 -5
    endloop
  endfacet
  facet normal -0 0 -1
    outer loop
      vertex 14.6722 3.11868 -5
      vertex 12.7159 2.70285 -5
      vertex 13.7032 6.10105 -5
    endloop
  endfacet
  facet normal 0 0 -1
    outer loop
      vertex 11.8761 5.28758 -5
      vertex 13.7032 6.10105 -5
      vertex 12.7159 2.70285 -5
    endloop
  endfacet
  facet normal -0 0 -1
    outer loop
      vertex 13.7032 6.10105 -5
      vertex 11.8761 5.28758 -5
      vertex 12.1353 8.81678 -5
    endloop
  endfacet
  facet normal 0 0 -1
    outer loop
      vertex 10.5172 7.64121 -5
      vertex 12.1353 8.81678 -5
      vertex 11.8761 5.28758 -5
    endloop
  endfacet
  facet normal 0 0 -1
    outer loop
      vertex 10.5172 7.64121 -5
      vertex 10.037 11.1472 -5
      vertex 12.1353 8.81678 -5
    endloop
  endfacet
  facet normal 0 0 -1
    outer loop
      vertex 8.6987 9.66088 -5
      vertex 10.037 11.1472 -5
      vertex 10.5172 7.64121 -5
    endloop
  endfacet
  facet normal 0 0 -1
    outer loop
      vertex 8.6987 9.66088 -5
      vertex 7.5 12.9904 -5
      vertex 10.037 11.1472 -5
    endloop
  endfacet
  facet normal 0 0 -1
    outer loop
      vertex 6.5 11.2583 -5
      vertex 7.5 12.9904 -5
      vertex 8.6987 9.66088 -5
    endloop
  endfacet
  facet normal 0 0 -1
    outer loop
      vertex 6.5 11.2583 -5
      vertex 4.63525 14.2658 -5
      vertex 7.5 12.9904 -5
    endloop
  endfacet
  facet normal 0 0 -1
    outer loop
      vertex 4.01722 12.3637 -5
      vertex 4.63525 14.2658 -5
      vertex 6.5 11.2583 -5
    endloop
  endfacet
  facet normal 0 0 -1
    outer loop
      vertex 4.01722 12.3637 -5
      vertex 1.56793 14.9178 -5
      vertex 4.63525 14.2658 -5
    endloop
  endfacet
  facet normal 0 0 -1
    outer loop
      vertex 1.35887 12.9288 -5
      vertex 1.56793 14.9178 -5
      vertex 4.01722 12.3637 -5
    endloop
  endfacet
  facet normal 0 0 -1
    outer loop
      vertex -1.35887 12.9288 -5
      vertex 1.56793 14.9178 -5
      vertex 1.35887 12.9288 -5
    endloop
  endfacet
  facet normal 0 0 -1
    outer loop
      vertex -1.35887 12.9288 -5
      vertex -1.56793 14.9178 -5
      vertex 1.56793 14.9178 -5
    endloop
  endfacet
  facet normal 0 0 -1
    outer loop
      vertex -4.01722 12.3637 -5
      vertex -1.56793 14.9178 -5
      vertex -1.35887 12.9288 -5
    endloop
  endfacet
  facet normal 0 0 -1
    outer loop
      vertex -4.01722 12.3637 -5
      vertex -4.63525 14.2658 -5
      vertex -1.56793 14.9178 -5
    endloop
  endfacet
  facet normal 0 0 -1
    outer loop
      vertex -6.5 11.2583 -5
      vertex -4.63525 14.2658 -5
      vertex -4.01722 12.3637 -5
    endloop
  endfacet
  facet normal 0 0 -1
    outer loop
      vertex -6.5 11.2583 -5
      vertex -7.5 12.9904 -5
      vertex -4.63525 14.2658 -5
    endloop
  endfacet
  facet normal 0 0 -1
    outer loop
      vertex -8.6987 9.66088 -5
      vertex -7.5 12.9904 -5
      vertex -6.5 11.2583 -5
    endloop
  endfacet
  facet normal 0 0 -1
    outer loop
      vertex -8.6987 9.66088 -5
      vertex -10.037 11.1472 -5
      vertex -7.5 12.9904 -5
    endloop
  endfacet
  facet normal 0 0 -1
    outer loop
      vertex -10.5172 7.64121 -5
      vertex -10.037 11.1472 -5
      vertex -8.6987 9.66088 -5
    endloop
  endfacet
  facet normal 0 0 -1
    outer loop
      vertex -12.1353 8.81678 -5
      vertex -10.5172 7.64121 -5
      vertex -11.8761 5.28758 -5
    endloop
  endfacet
  facet normal 0 0 -1
    outer loop
      vertex -10.5172 7.64121 -5
      vertex -12.1353 8.81678 -5
      vertex -10.037 11.1472 -5
    endloop
  endfacet
  facet normal 0 0 -1
    outer loop
      vertex -13.7032 6.10105 -5
      vertex -11.8761 5.28758 -5
      vertex -12.7159 2.70285 -5
    endloop
  endfacet
  facet normal 0 0 -1
    outer loop
      vertex -14.6722 3.11868 -5
      vertex -12.7159 2.70285 -5
      vertex -13 0 -5
    endloop
  endfacet
  facet normal -0 0 -1
    outer loop
      vertex -12.7159 -2.70285 -5
      vertex -14.6722 -3.11868 -5
      vertex -13 0 -5
    endloop
  endfacet
  facet normal 0 0 -1
    outer loop
      vertex -11.8761 5.28758 -5
      vertex -13.7032 6.10105 -5
      vertex -12.1353 8.81678 -5
    endloop
  endfacet
  facet normal 0 0 -1
    outer loop
      vertex -15 0 -5
      vertex -13 0 -5
      vertex -14.6722 -3.11868 -5
    endloop
  endfacet
  facet normal 0 0 -1
    outer loop
      vertex -12.7159 2.70285 -5
      vertex -14.6722 3.11868 -5
      vertex -13.7032 6.10105 -5
    endloop
  endfacet
  facet normal 0 0 -1
    outer loop
      vertex -13 0 -5
      vertex -15 0 -5
      vertex -14.6722 3.11868 -5
    endloop
  endfacet
  facet normal -0.406718 -0.913554 0
    outer loop
      vertex -7.5 -12.9904 -5
      vertex -4.63525 -14.2658 5
      vertex -7.5 -12.9904 5
    endloop
  endfacet
  facet normal -0.406718 -0.913554 -0
    outer loop
      vertex -4.63525 -14.2658 5
      vertex -7.5 -12.9904 -5
      vertex -4.63525 -14.2658 -5
    endloop
  endfacet
  facet normal 0.743147 0.669129 0
    outer loop
      vertex -6.69131 -7.43145 5
      vertex -8.09017 -5.87785 4.5
      vertex -8.09017 -5.87785 5
    endloop
  endfacet
  facet normal 0.743147 0.669129 0
    outer loop
      vertex -8.09017 -5.87785 4.5
      vertex -6.69131 -7.43145 5
      vertex -6.69131 -7.43145 4.5
    endloop
  endfacet
  facet normal -0.951055 -0.309021 0
    outer loop
      vertex 9.78148 2.07912 4.5
      vertex 9.13545 4.06737 5
      vertex 9.13545 4.06737 4.5
    endloop
  endfacet
  facet normal -0.951055 -0.309021 0
    outer loop
      vertex 9.13545 4.06737 5
      vertex 9.78148 2.07912 4.5
      vertex 9.78148 2.07912 5
    endloop
  endfacet
  facet normal -0.994522 -0.104526 0
    outer loop
      vertex 10 0 4.5
      vertex 9.78148 2.07912 5
      vertex 9.78148 2.07912 4.5
    endloop
  endfacet
  facet normal -0.994522 -0.104526 0
    outer loop
      vertex 9.78148 2.07912 5
      vertex 10 0 4.5
      vertex 10 0 5
    endloop
  endfacet
  facet normal -0.866026 -0.5 0
    outer loop
      vertex 9.13545 4.06737 4.5
      vertex 8.09017 5.87785 5
      vertex 8.09017 5.87785 4.5
    endloop
  endfacet
  facet normal -0.866026 -0.5 0
    outer loop
      vertex 8.09017 5.87785 5
      vertex 9.13545 4.06737 4.5
      vertex 9.13545 4.06737 5
    endloop
  endfacet
  facet normal -0.951055 0.309021 0
    outer loop
      vertex 9.13545 -4.06737 4.5
      vertex 9.78148 -2.07912 5
      vertex 9.78148 -2.07912 4.5
    endloop
  endfacet
  facet normal -0.951055 0.309021 0
    outer loop
      vertex 9.78148 -2.07912 5
      vertex 9.13545 -4.06737 4.5
      vertex 9.13545 -4.06737 5
    endloop
  endfacet
  facet normal -0.587783 0.809019 0
    outer loop
      vertex 6.69131 -7.43145 4.5
      vertex 5 -8.66025 5
      vertex 6.69131 -7.43145 5
    endloop
  endfacet
  facet normal -0.587783 0.809019 0
    outer loop
      vertex 5 -8.66025 5
      vertex 6.69131 -7.43145 4.5
      vertex 5 -8.66025 4.5
    endloop
  endfacet
  facet normal -0.743147 0.669129 0
    outer loop
      vertex 6.69131 -7.43145 4.5
      vertex 8.09017 -5.87785 5
      vertex 8.09017 -5.87785 4.5
    endloop
  endfacet
  facet normal -0.743147 0.669129 0
    outer loop
      vertex 8.09017 -5.87785 5
      vertex 6.69131 -7.43145 4.5
      vertex 6.69131 -7.43145 5
    endloop
  endfacet
  facet normal -0.994522 0.104526 0
    outer loop
      vertex 9.78148 -2.07912 4.5
      vertex 10 0 5
      vertex 10 0 4.5
    endloop
  endfacet
  facet normal -0.994522 0.104526 0
    outer loop
      vertex 10 0 5
      vertex 9.78148 -2.07912 4.5
      vertex 9.78148 -2.07912 5
    endloop
  endfacet
  facet normal 0.406736 0.913546 -0
    outer loop
      vertex -3.09017 -9.51056 4.5
      vertex -5 -8.66025 5
      vertex -3.09017 -9.51056 5
    endloop
  endfacet
  facet normal 0.406736 0.913546 0
    outer loop
      vertex -5 -8.66025 5
      vertex -3.09017 -9.51056 4.5
      vertex -5 -8.66025 4.5
    endloop
  endfacet
  facet normal -0.406736 -0.913546 0
    outer loop
      vertex 3.09017 9.51056 4.5
      vertex 5 8.66025 5
      vertex 3.09017 9.51056 5
    endloop
  endfacet
  facet normal -0.406736 -0.913546 -0
    outer loop
      vertex 5 8.66025 5
      vertex 3.09017 9.51056 4.5
      vertex 5 8.66025 4.5
    endloop
  endfacet
  facet normal -0.743147 -0.669129 0
    outer loop
      vertex 8.09017 5.87785 4.5
      vertex 6.69131 7.43145 5
      vertex 6.69131 7.43145 4.5
    endloop
  endfacet
  facet normal -0.743147 -0.669129 0
    outer loop
      vertex 6.69131 7.43145 5
      vertex 8.09017 5.87785 4.5
      vertex 8.09017 5.87785 5
    endloop
  endfacet
  facet normal 0.587783 0.809019 -0
    outer loop
      vertex -5 -8.66025 4.5
      vertex -6.69131 -7.43145 5
      vertex -5 -8.66025 5
    endloop
  endfacet
  facet normal 0.587783 0.809019 0
    outer loop
      vertex -6.69131 -7.43145 5
      vertex -5 -8.66025 4.5
      vertex -6.69131 -7.43145 4.5
    endloop
  endfacet
  facet normal 0.743147 -0.669129 0
    outer loop
      vertex -8.09017 5.87785 5
      vertex -6.69131 7.43145 4.5
      vertex -6.69131 7.43145 5
    endloop
  endfacet
  facet normal 0.743147 -0.669129 0
    outer loop
      vertex -6.69131 7.43145 4.5
      vertex -8.09017 5.87785 5
      vertex -8.09017 5.87785 4.5
    endloop
  endfacet
  facet normal 0 -1 0
    outer loop
      vertex -1.04528 9.94522 4.5
      vertex 1.04528 9.94522 5
      vertex -1.04528 9.94522 5
    endloop
  endfacet
  facet normal 0 -1 -0
    outer loop
      vertex 1.04528 9.94522 5
      vertex -1.04528 9.94522 4.5
      vertex 1.04528 9.94522 4.5
    endloop
  endfacet
  facet normal -0.406736 0.913546 0
    outer loop
      vertex 5 -8.66025 4.5
      vertex 3.09017 -9.51056 5
      vertex 5 -8.66025 5
    endloop
  endfacet
  facet normal -0.406736 0.913546 0
    outer loop
      vertex 3.09017 -9.51056 5
      vertex 5 -8.66025 4.5
      vertex 3.09017 -9.51056 4.5
    endloop
  endfacet
  facet normal -0.207914 0.978147 0
    outer loop
      vertex 3.09017 -9.51056 4.5
      vertex 1.04528 -9.94522 5
      vertex 3.09017 -9.51056 5
    endloop
  endfacet
  facet normal -0.207914 0.978147 0
    outer loop
      vertex 1.04528 -9.94522 5
      vertex 3.09017 -9.51056 4.5
      vertex 1.04528 -9.94522 4.5
    endloop
  endfacet
  facet normal 0.951055 -0.309021 0
    outer loop
      vertex -9.78148 2.07912 5
      vertex -9.13545 4.06737 4.5
      vertex -9.13545 4.06737 5
    endloop
  endfacet
  facet normal 0.951055 -0.309021 0
    outer loop
      vertex -9.13545 4.06737 4.5
      vertex -9.78148 2.07912 5
      vertex -9.78148 2.07912 4.5
    endloop
  endfacet
  facet normal 0.951055 0.309021 0
    outer loop
      vertex -9.13545 -4.06737 5
      vertex -9.78148 -2.07912 4.5
      vertex -9.78148 -2.07912 5
    endloop
  endfacet
  facet normal 0.951055 0.309021 0
    outer loop
      vertex -9.78148 -2.07912 4.5
      vertex -9.13545 -4.06737 5
      vertex -9.13545 -4.06737 4.5
    endloop
  endfacet
  facet normal 0.406736 -0.913546 0
    outer loop
      vertex -5 8.66025 4.5
      vertex -3.09017 9.51056 5
      vertex -5 8.66025 5
    endloop
  endfacet
  facet normal 0.406736 -0.913546 0
    outer loop
      vertex -3.09017 9.51056 5
      vertex -5 8.66025 4.5
      vertex -3.09017 9.51056 4.5
    endloop
  endfacet
  facet normal 0.207914 0.978147 -0
    outer loop
      vertex -1.04528 -9.94522 4.5
      vertex -3.09017 -9.51056 5
      vertex -1.04528 -9.94522 5
    endloop
  endfacet
  facet normal 0.207914 0.978147 0
    outer loop
      vertex -3.09017 -9.51056 5
      vertex -1.04528 -9.94522 4.5
      vertex -3.09017 -9.51056 4.5
    endloop
  endfacet
  facet normal -0.207914 -0.978147 0
    outer loop
      vertex 1.04528 9.94522 4.5
      vertex 3.09017 9.51056 5
      vertex 1.04528 9.94522 5
    endloop
  endfacet
  facet normal -0.207914 -0.978147 -0
    outer loop
      vertex 3.09017 9.51056 5
      vertex 1.04528 9.94522 4.5
      vertex 3.09017 9.51056 4.5
    endloop
  endfacet
  facet normal 0.994522 0.104526 0
    outer loop
      vertex -9.78148 -2.07912 5
      vertex -10 0 4.5
      vertex -10 0 5
    endloop
  endfacet
  facet normal 0.994522 0.104526 0
    outer loop
      vertex -10 0 4.5
      vertex -9.78148 -2.07912 5
      vertex -9.78148 -2.07912 4.5
    endloop
  endfacet
  facet normal 0.866026 0.5 0
    outer loop
      vertex -8.09017 -5.87785 5
      vertex -9.13545 -4.06737 4.5
      vertex -9.13545 -4.06737 5
    endloop
  endfacet
  facet normal 0.866026 0.5 0
    outer loop
      vertex -9.13545 -4.06737 4.5
      vertex -8.09017 -5.87785 5
      vertex -8.09017 -5.87785 4.5
    endloop
  endfacet
  facet normal 0.866026 -0.5 0
    outer loop
      vertex -9.13545 4.06737 5
      vertex -8.09017 5.87785 4.5
      vertex -8.09017 5.87785 5
    endloop
  endfacet
  facet normal 0.866026 -0.5 0
    outer loop
      vertex -8.09017 5.87785 4.5
      vertex -9.13545 4.06737 5
      vertex -9.13545 4.06737 4.5
    endloop
  endfacet
  facet normal -0.866026 0.5 0
    outer loop
      vertex 8.09017 -5.87785 4.5
      vertex 9.13545 -4.06737 5
      vertex 9.13545 -4.06737 4.5
    endloop
  endfacet
  facet normal -0.866026 0.5 0
    outer loop
      vertex 9.13545 -4.06737 5
      vertex 8.09017 -5.87785 4.5
      vertex 8.09017 -5.87785 5
    endloop
  endfacet
  facet normal -0.587783 -0.809019 0
    outer loop
      vertex 5 8.66025 4.5
      vertex 6.69131 7.43145 5
      vertex 5 8.66025 5
    endloop
  endfacet
  facet normal -0.587783 -0.809019 -0
    outer loop
      vertex 6.69131 7.43145 5
      vertex 5 8.66025 4.5
      vertex 6.69131 7.43145 4.5
    endloop
  endfacet
  facet normal 0.587783 -0.809019 0
    outer loop
      vertex -6.69131 7.43145 4.5
      vertex -5 8.66025 5
      vertex -6.69131 7.43145 5
    endloop
  endfacet
  facet normal 0.587783 -0.809019 0
    outer loop
      vertex -5 8.66025 5
      vertex -6.69131 7.43145 4.5
      vertex -5 8.66025 4.5
    endloop
  endfacet
  facet normal 0.207914 -0.978147 0
    outer loop
      vertex -3.09017 9.51056 4.5
      vertex -1.04528 9.94522 5
      vertex -3.09017 9.51056 5
    endloop
  endfacet
  facet normal 0.207914 -0.978147 0
    outer loop
      vertex -1.04528 9.94522 5
      vertex -3.09017 9.51056 4.5
      vertex -1.04528 9.94522 4.5
    endloop
  endfacet
  facet normal 0 1 -0
    outer loop
      vertex 1.04528 -9.94522 4.5
      vertex -1.04528 -9.94522 5
      vertex 1.04528 -9.94522 5
    endloop
  endfacet
  facet normal 0 1 0
    outer loop
      vertex -1.04528 -9.94522 5
      vertex 1.04528 -9.94522 4.5
      vertex -1.04528 -9.94522 4.5
    endloop
  endfacet
  facet normal 0.994522 -0.104526 0
    outer loop
      vertex -10 0 5
      vertex -9.78148 2.07912 4.5
      vertex -9.78148 2.07912 5
    endloop
  endfacet
  facet normal 0.994522 -0.104526 0
    outer loop
      vertex -9.78148 2.07912 4.5
      vertex -10 0 5
      vertex -10 0 4.5
    endloop
  endfacet
  facet normal 0.406735 0.913546 -0
    outer loop
      vertex -4.01722 -12.3637 -5
      vertex -6.5 -11.2583 4.5
      vertex -4.01722 -12.3637 4.5
    endloop
  endfacet
  facet normal 0.406735 0.913546 0
    outer loop
      vertex -6.5 -11.2583 4.5
      vertex -4.01722 -12.3637 -5
      vertex -6.5 -11.2583 -5
    endloop
  endfacet
  facet normal -0.95106 -0.309007 0
    outer loop
      vertex 12.7159 2.70285 -5
      vertex 11.8761 5.28758 4.5
      vertex 11.8761 5.28758 -5
    endloop
  endfacet
  facet normal -0.95106 -0.309007 0
    outer loop
      vertex 11.8761 5.28758 4.5
      vertex 12.7159 2.70285 -5
      vertex 12.7159 2.70285 4.5
    endloop
  endfacet
  facet normal -0.994521 -0.104535 0
    outer loop
      vertex 13 0 -5
      vertex 12.7159 2.70285 4.5
      vertex 12.7159 2.70285 -5
    endloop
  endfacet
  facet normal -0.994521 -0.104535 0
    outer loop
      vertex 12.7159 2.70285 4.5
      vertex 13 0 -5
      vertex 13 0 4.5
    endloop
  endfacet
  facet normal -0.86602 -0.500009 0
    outer loop
      vertex 11.8761 5.28758 -5
      vertex 10.5172 7.64121 4.5
      vertex 10.5172 7.64121 -5
    endloop
  endfacet
  facet normal -0.86602 -0.500009 0
    outer loop
      vertex 10.5172 7.64121 4.5
      vertex 11.8761 5.28758 -5
      vertex 11.8761 5.28758 4.5
    endloop
  endfacet
  facet normal 0.743148 0.669127 0
    outer loop
      vertex -8.6987 -9.66088 4.5
      vertex -10.5172 -7.64121 -5
      vertex -10.5172 -7.64121 4.5
    endloop
  endfacet
  facet normal 0.743148 0.669127 0
    outer loop
      vertex -10.5172 -7.64121 -5
      vertex -8.6987 -9.66088 4.5
      vertex -8.6987 -9.66088 -5
    endloop
  endfacet
  facet normal -0.994521 0.104535 0
    outer loop
      vertex 12.7159 -2.70285 -5
      vertex 13 0 4.5
      vertex 13 0 -5
    endloop
  endfacet
  facet normal -0.994521 0.104535 0
    outer loop
      vertex 13 0 4.5
      vertex 12.7159 -2.70285 -5
      vertex 12.7159 -2.70285 4.5
    endloop
  endfacet
  facet normal -0.86602 0.500009 0
    outer loop
      vertex 10.5172 -7.64121 -5
      vertex 11.8761 -5.28758 4.5
      vertex 11.8761 -5.28758 -5
    endloop
  endfacet
  facet normal -0.86602 0.500009 0
    outer loop
      vertex 11.8761 -5.28758 4.5
      vertex 10.5172 -7.64121 -5
      vertex 10.5172 -7.64121 4.5
    endloop
  endfacet
  facet normal 0 0 -1
    outer loop
      vertex 10 0 4.5
      vertex 13 0 4.5
      vertex 12.7159 -2.70285 4.5
    endloop
  endfacet
  facet normal 0 0 -1
    outer loop
      vertex 9.78148 -2.07912 4.5
      vertex 12.7159 -2.70285 4.5
      vertex 11.8761 -5.28758 4.5
    endloop
  endfacet
  facet normal 0 0 -1
    outer loop
      vertex 13 0 4.5
      vertex 10 0 4.5
      vertex 12.7159 2.70285 4.5
    endloop
  endfacet
  facet normal 0 0 -1
    outer loop
      vertex 9.13545 -4.06737 4.5
      vertex 11.8761 -5.28758 4.5
      vertex 10.5172 -7.64121 4.5
    endloop
  endfacet
  facet normal 0 0 -1
    outer loop
      vertex 9.78148 2.07912 4.5
      vertex 12.7159 2.70285 4.5
      vertex 10 0 4.5
    endloop
  endfacet
  facet normal -0 0 -1
    outer loop
      vertex 12.7159 2.70285 4.5
      vertex 9.78148 2.07912 4.5
      vertex 11.8761 5.28758 4.5
    endloop
  endfacet
  facet normal 0 0 -1
    outer loop
      vertex 12.7159 -2.70285 4.5
      vertex 9.78148 -2.07912 4.5
      vertex 10 0 4.5
    endloop
  endfacet
  facet normal 0 0 -1
    outer loop
      vertex 11.8761 -5.28758 4.5
      vertex 9.13545 -4.06737 4.5
      vertex 9.78148 -2.07912 4.5
    endloop
  endfacet
  facet normal 0 0 -1
    outer loop
      vertex 8.09017 -5.87785 4.5
      vertex 10.5172 -7.64121 4.5
      vertex 8.6987 -9.66088 4.5
    endloop
  endfacet
  facet normal 0 0 -1
    outer loop
      vertex 10.5172 -7.64121 4.5
      vertex 8.09017 -5.87785 4.5
      vertex 9.13545 -4.06737 4.5
    endloop
  endfacet
  facet normal 0 0 -1
    outer loop
      vertex 8.6987 -9.66088 4.5
      vertex 6.69131 -7.43145 4.5
      vertex 8.09017 -5.87785 4.5
    endloop
  endfacet
  facet normal 0 0 -1
    outer loop
      vertex 6.5 -11.2583 4.5
      vertex 6.69131 -7.43145 4.5
      vertex 8.6987 -9.66088 4.5
    endloop
  endfacet
  facet normal 0 0 -1
    outer loop
      vertex 6.5 -11.2583 4.5
      vertex 5 -8.66025 4.5
      vertex 6.69131 -7.43145 4.5
    endloop
  endfacet
  facet normal 0 0 -1
    outer loop
      vertex 4.01722 -12.3637 4.5
      vertex 5 -8.66025 4.5
      vertex 6.5 -11.2583 4.5
    endloop
  endfacet
  facet normal 0 0 -1
    outer loop
      vertex 4.01722 -12.3637 4.5
      vertex 3.09017 -9.51056 4.5
      vertex 5 -8.66025 4.5
    endloop
  endfacet
  facet normal 0 0 -1
    outer loop
      vertex 1.35887 -12.9288 4.5
      vertex 3.09017 -9.51056 4.5
      vertex 4.01722 -12.3637 4.5
    endloop
  endfacet
  facet normal 0 0 -1
    outer loop
      vertex 1.35887 -12.9288 4.5
      vertex 1.04528 -9.94522 4.5
      vertex 3.09017 -9.51056 4.5
    endloop
  endfacet
  facet normal 0 0 -1
    outer loop
      vertex 1.35887 -12.9288 4.5
      vertex -1.04528 -9.94522 4.5
      vertex 1.04528 -9.94522 4.5
    endloop
  endfacet
  facet normal 0 0 -1
    outer loop
      vertex -1.35887 -12.9288 4.5
      vertex -1.04528 -9.94522 4.5
      vertex 1.35887 -12.9288 4.5
    endloop
  endfacet
  facet normal 0 0 -1
    outer loop
      vertex -1.35887 -12.9288 4.5
      vertex -3.09017 -9.51056 4.5
      vertex -1.04528 -9.94522 4.5
    endloop
  endfacet
  facet normal 0 0 -1
    outer loop
      vertex -4.01722 -12.3637 4.5
      vertex -3.09017 -9.51056 4.5
      vertex -1.35887 -12.9288 4.5
    endloop
  endfacet
  facet normal 0 0 -1
    outer loop
      vertex -4.01722 -12.3637 4.5
      vertex -5 -8.66025 4.5
      vertex -3.09017 -9.51056 4.5
    endloop
  endfacet
  facet normal 0 0 -1
    outer loop
      vertex -6.5 -11.2583 4.5
      vertex -5 -8.66025 4.5
      vertex -4.01722 -12.3637 4.5
    endloop
  endfacet
  facet normal 0 0 -1
    outer loop
      vertex -6.5 -11.2583 4.5
      vertex -6.69131 -7.43145 4.5
      vertex -5 -8.66025 4.5
    endloop
  endfacet
  facet normal 0 0 -1
    outer loop
      vertex -8.6987 -9.66088 4.5
      vertex -6.69131 -7.43145 4.5
      vertex -6.5 -11.2583 4.5
    endloop
  endfacet
  facet normal -0 0 -1
    outer loop
      vertex -6.69131 -7.43145 4.5
      vertex -8.6987 -9.66088 4.5
      vertex -8.09017 -5.87785 4.5
    endloop
  endfacet
  facet normal 0 0 -1
    outer loop
      vertex -10.5172 -7.64121 4.5
      vertex -8.09017 -5.87785 4.5
      vertex -8.6987 -9.66088 4.5
    endloop
  endfacet
  facet normal -0 0 -1
    outer loop
      vertex -8.09017 -5.87785 4.5
      vertex -10.5172 -7.64121 4.5
      vertex -9.13545 -4.06737 4.5
    endloop
  endfacet
  facet normal -0 0 -1
    outer loop
      vertex -9.13545 -4.06737 4.5
      vertex -11.8761 -5.28758 4.5
      vertex -9.78148 -2.07912 4.5
    endloop
  endfacet
  facet normal 0 0 -1
    outer loop
      vertex -11.8761 -5.28758 4.5
      vertex -9.13545 -4.06737 4.5
      vertex -10.5172 -7.64121 4.5
    endloop
  endfacet
  facet normal 0 0 -1
    outer loop
      vertex 9.13545 4.06737 4.5
      vertex 11.8761 5.28758 4.5
      vertex 9.78148 2.07912 4.5
    endloop
  endfacet
  facet normal -0 0 -1
    outer loop
      vertex 11.8761 5.28758 4.5
      vertex 9.13545 4.06737 4.5
      vertex 10.5172 7.64121 4.5
    endloop
  endfacet
  facet normal 0 0 -1
    outer loop
      vertex 8.09017 5.87785 4.5
      vertex 10.5172 7.64121 4.5
      vertex 9.13545 4.06737 4.5
    endloop
  endfacet
  facet normal -0 0 -1
    outer loop
      vertex 10.5172 7.64121 4.5
      vertex 8.09017 5.87785 4.5
      vertex 8.6987 9.66088 4.5
    endloop
  endfacet
  facet normal 0 0 -1
    outer loop
      vertex 6.69131 7.43145 4.5
      vertex 8.6987 9.66088 4.5
      vertex 8.09017 5.87785 4.5
    endloop
  endfacet
  facet normal 0 0 -1
    outer loop
      vertex 6.69131 7.43145 4.5
      vertex 6.5 11.2583 4.5
      vertex 8.6987 9.66088 4.5
    endloop
  endfacet
  facet normal 0 0 -1
    outer loop
      vertex 5 8.66025 4.5
      vertex 6.5 11.2583 4.5
      vertex 6.69131 7.43145 4.5
    endloop
  endfacet
  facet normal 0 0 -1
    outer loop
      vertex 5 8.66025 4.5
      vertex 4.01722 12.3637 4.5
      vertex 6.5 11.2583 4.5
    endloop
  endfacet
  facet normal 0 0 -1
    outer loop
      vertex 3.09017 9.51056 4.5
      vertex 4.01722 12.3637 4.5
      vertex 5 8.66025 4.5
    endloop
  endfacet
  facet normal 0 0 -1
    outer loop
      vertex 3.09017 9.51056 4.5
      vertex 1.35887 12.9288 4.5
      vertex 4.01722 12.3637 4.5
    endloop
  endfacet
  facet normal 0 0 -1
    outer loop
      vertex 1.04528 9.94522 4.5
      vertex 1.35887 12.9288 4.5
      vertex 3.09017 9.51056 4.5
    endloop
  endfacet
  facet normal 0 0 -1
    outer loop
      vertex -1.04528 9.94522 4.5
      vertex 1.35887 12.9288 4.5
      vertex 1.04528 9.94522 4.5
    endloop
  endfacet
  facet normal 0 0 -1
    outer loop
      vertex -1.04528 9.94522 4.5
      vertex -1.35887 12.9288 4.5
      vertex 1.35887 12.9288 4.5
    endloop
  endfacet
  facet normal 0 0 -1
    outer loop
      vertex -3.09017 9.51056 4.5
      vertex -1.35887 12.9288 4.5
      vertex -1.04528 9.94522 4.5
    endloop
  endfacet
  facet normal 0 0 -1
    outer loop
      vertex -3.09017 9.51056 4.5
      vertex -4.01722 12.3637 4.5
      vertex -1.35887 12.9288 4.5
    endloop
  endfacet
  facet normal 0 0 -1
    outer loop
      vertex -5 8.66025 4.5
      vertex -4.01722 12.3637 4.5
      vertex -3.09017 9.51056 4.5
    endloop
  endfacet
  facet normal 0 0 -1
    outer loop
      vertex -5 8.66025 4.5
      vertex -6.5 11.2583 4.5
      vertex -4.01722 12.3637 4.5
    endloop
  endfacet
  facet normal 0 0 -1
    outer loop
      vertex -6.69131 7.43145 4.5
      vertex -6.5 11.2583 4.5
      vertex -5 8.66025 4.5
    endloop
  endfacet
  facet normal 0 0 -1
    outer loop
      vertex -8.6987 9.66088 4.5
      vertex -6.69131 7.43145 4.5
      vertex -8.09017 5.87785 4.5
    endloop
  endfacet
  facet normal 0 0 -1
    outer loop
      vertex -6.69131 7.43145 4.5
      vertex -8.6987 9.66088 4.5
      vertex -6.5 11.2583 4.5
    endloop
  endfacet
  facet normal 0 0 -1
    outer loop
      vertex -10.5172 7.64121 4.5
      vertex -8.09017 5.87785 4.5
      vertex -9.13545 4.06737 4.5
    endloop
  endfacet
  facet normal 0 0 -1
    outer loop
      vertex -11.8761 5.28758 4.5
      vertex -9.13545 4.06737 4.5
      vertex -9.78148 2.07912 4.5
    endloop
  endfacet
  facet normal 0 0 -1
    outer loop
      vertex -8.09017 5.87785 4.5
      vertex -10.5172 7.64121 4.5
      vertex -8.6987 9.66088 4.5
    endloop
  endfacet
  facet normal 0 0 -1
    outer loop
      vertex -12.7159 2.70285 4.5
      vertex -9.78148 2.07912 4.5
      vertex -10 0 4.5
    endloop
  endfacet
  facet normal 0 0 -1
    outer loop
      vertex -12.7159 -2.70285 4.5
      vertex -9.78148 -2.07912 4.5
      vertex -11.8761 -5.28758 4.5
    endloop
  endfacet
  facet normal -0 0 -1
    outer loop
      vertex -9.78148 -2.07912 4.5
      vertex -12.7159 -2.70285 4.5
      vertex -10 0 4.5
    endloop
  endfacet
  facet normal 0 0 -1
    outer loop
      vertex -9.13545 4.06737 4.5
      vertex -11.8761 5.28758 4.5
      vertex -10.5172 7.64121 4.5
    endloop
  endfacet
  facet normal 0 0 -1
    outer loop
      vertex -13 0 4.5
      vertex -10 0 4.5
      vertex -12.7159 -2.70285 4.5
    endloop
  endfacet
  facet normal 0 0 -1
    outer loop
      vertex -9.78148 2.07912 4.5
      vertex -12.7159 2.70285 4.5
      vertex -11.8761 5.28758 4.5
    endloop
  endfacet
  facet normal 0 0 -1
    outer loop
      vertex -10 0 4.5
      vertex -13 0 4.5
      vertex -12.7159 2.70285 4.5
    endloop
  endfacet
  facet normal -0.406735 -0.913546 0
    outer loop
      vertex 4.01722 12.3637 -5
      vertex 6.5 11.2583 4.5
      vertex 4.01722 12.3637 4.5
    endloop
  endfacet
  facet normal -0.406735 -0.913546 -0
    outer loop
      vertex 6.5 11.2583 4.5
      vertex 4.01722 12.3637 -5
      vertex 6.5 11.2583 -5
    endloop
  endfacet
  facet normal 0.95106 0.309007 0
    outer loop
      vertex -11.8761 -5.28758 4.5
      vertex -12.7159 -2.70285 -5
      vertex -12.7159 -2.70285 4.5
    endloop
  endfacet
  facet normal 0.95106 0.309007 0
    outer loop
      vertex -12.7159 -2.70285 -5
      vertex -11.8761 -5.28758 4.5
      vertex -11.8761 -5.28758 -5
    endloop
  endfacet
  facet normal 0.587778 -0.809022 0
    outer loop
      vertex -8.6987 9.66088 -5
      vertex -6.5 11.2583 4.5
      vertex -8.6987 9.66088 4.5
    endloop
  endfacet
  facet normal 0.587778 -0.809022 0
    outer loop
      vertex -6.5 11.2583 4.5
      vertex -8.6987 9.66088 -5
      vertex -6.5 11.2583 -5
    endloop
  endfacet
  facet normal -0.587778 -0.809022 0
    outer loop
      vertex 6.5 11.2583 -5
      vertex 8.6987 9.66088 4.5
      vertex 6.5 11.2583 4.5
    endloop
  endfacet
  facet normal -0.587778 -0.809022 -0
    outer loop
      vertex 8.6987 9.66088 4.5
      vertex 6.5 11.2583 -5
      vertex 8.6987 9.66088 -5
    endloop
  endfacet
  facet normal 0.994521 -0.104535 0
    outer loop
      vertex -13 0 4.5
      vertex -12.7159 2.70285 -5
      vertex -12.7159 2.70285 4.5
    endloop
  endfacet
  facet normal 0.994521 -0.104535 0
    outer loop
      vertex -12.7159 2.70285 -5
      vertex -13 0 4.5
      vertex -13 0 -5
    endloop
  endfacet
  facet normal -0.207929 0.978144 0
    outer loop
      vertex 4.01722 -12.3637 -5
      vertex 1.35887 -12.9288 4.5
      vertex 4.01722 -12.3637 4.5
    endloop
  endfacet
  facet normal -0.207929 0.978144 0
    outer loop
      vertex 1.35887 -12.9288 4.5
      vertex 4.01722 -12.3637 -5
      vertex 1.35887 -12.9288 -5
    endloop
  endfacet
  facet normal 0.994521 0.104535 0
    outer loop
      vertex -12.7159 -2.70285 4.5
      vertex -13 0 -5
      vertex -13 0 4.5
    endloop
  endfacet
  facet normal 0.994521 0.104535 0
    outer loop
      vertex -13 0 -5
      vertex -12.7159 -2.70285 4.5
      vertex -12.7159 -2.70285 -5
    endloop
  endfacet
  facet normal -0.743148 0.669127 0
    outer loop
      vertex 8.6987 -9.66088 -5
      vertex 10.5172 -7.64121 4.5
      vertex 10.5172 -7.64121 -5
    endloop
  endfacet
  facet normal -0.743148 0.669127 0
    outer loop
      vertex 10.5172 -7.64121 4.5
      vertex 8.6987 -9.66088 -5
      vertex 8.6987 -9.66088 4.5
    endloop
  endfacet
  facet normal 0 1 -0
    outer loop
      vertex 1.35887 -12.9288 -5
      vertex -1.35887 -12.9288 4.5
      vertex 1.35887 -12.9288 4.5
    endloop
  endfacet
  facet normal 0 1 0
    outer loop
      vertex -1.35887 -12.9288 4.5
      vertex 1.35887 -12.9288 -5
      vertex -1.35887 -12.9288 -5
    endloop
  endfacet
  facet normal 0.95106 -0.309007 0
    outer loop
      vertex -12.7159 2.70285 4.5
      vertex -11.8761 5.28758 -5
      vertex -11.8761 5.28758 4.5
    endloop
  endfacet
  facet normal 0.95106 -0.309007 0
    outer loop
      vertex -11.8761 5.28758 -5
      vertex -12.7159 2.70285 4.5
      vertex -12.7159 2.70285 -5
    endloop
  endfacet
  facet normal 0.207929 -0.978144 0
    outer loop
      vertex -4.01722 12.3637 -5
      vertex -1.35887 12.9288 4.5
      vertex -4.01722 12.3637 4.5
    endloop
  endfacet
  facet normal 0.207929 -0.978144 0
    outer loop
      vertex -1.35887 12.9288 4.5
      vertex -4.01722 12.3637 -5
      vertex -1.35887 12.9288 -5
    endloop
  endfacet
  facet normal -0.207929 -0.978144 0
    outer loop
      vertex 1.35887 12.9288 -5
      vertex 4.01722 12.3637 4.5
      vertex 1.35887 12.9288 4.5
    endloop
  endfacet
  facet normal -0.207929 -0.978144 -0
    outer loop
      vertex 4.01722 12.3637 4.5
      vertex 1.35887 12.9288 -5
      vertex 4.01722 12.3637 -5
    endloop
  endfacet
  facet normal 0.406735 -0.913546 0
    outer loop
      vertex -6.5 11.2583 -5
      vertex -4.01722 12.3637 4.5
      vertex -6.5 11.2583 4.5
    endloop
  endfacet
  facet normal 0.406735 -0.913546 0
    outer loop
      vertex -4.01722 12.3637 4.5
      vertex -6.5 11.2583 -5
      vertex -4.01722 12.3637 -5
    endloop
  endfacet
  facet normal -0.406735 0.913546 0
    outer loop
      vertex 6.5 -11.2583 -5
      vertex 4.01722 -12.3637 4.5
      vertex 6.5 -11.2583 4.5
    endloop
  endfacet
  facet normal -0.406735 0.913546 0
    outer loop
      vertex 4.01722 -12.3637 4.5
      vertex 6.5 -11.2583 -5
      vertex 4.01722 -12.3637 -5
    endloop
  endfacet
  facet normal -0.95106 0.309007 0
    outer loop
      vertex 11.8761 -5.28758 -5
      vertex 12.7159 -2.70285 4.5
      vertex 12.7159 -2.70285 -5
    endloop
  endfacet
  facet normal -0.95106 0.309007 0
    outer loop
      vertex 12.7159 -2.70285 4.5
      vertex 11.8761 -5.28758 -5
      vertex 11.8761 -5.28758 4.5
    endloop
  endfacet
  facet normal 0.743148 -0.669127 0
    outer loop
      vertex -10.5172 7.64121 4.5
      vertex -8.6987 9.66088 -5
      vertex -8.6987 9.66088 4.5
    endloop
  endfacet
  facet normal 0.743148 -0.669127 0
    outer loop
      vertex -8.6987 9.66088 -5
      vertex -10.5172 7.64121 4.5
      vertex -10.5172 7.64121 -5
    endloop
  endfacet
  facet normal 0.207929 0.978144 -0
    outer loop
      vertex -1.35887 -12.9288 -5
      vertex -4.01722 -12.3637 4.5
      vertex -1.35887 -12.9288 4.5
    endloop
  endfacet
  facet normal 0.207929 0.978144 0
    outer loop
      vertex -4.01722 -12.3637 4.5
      vertex -1.35887 -12.9288 -5
      vertex -4.01722 -12.3637 -5
    endloop
  endfacet
  facet normal 0.86602 0.500009 0
    outer loop
      vertex -10.5172 -7.64121 4.5
      vertex -11.8761 -5.28758 -5
      vertex -11.8761 -5.28758 4.5
    endloop
  endfacet
  facet normal 0.86602 0.500009 0
    outer loop
      vertex -11.8761 -5.28758 -5
      vertex -10.5172 -7.64121 4.5
      vertex -10.5172 -7.64121 -5
    endloop
  endfacet
  facet normal -0.743148 -0.669127 0
    outer loop
      vertex 10.5172 7.64121 -5
      vertex 8.6987 9.66088 4.5
      vertex 8.6987 9.66088 -5
    endloop
  endfacet
  facet normal -0.743148 -0.669127 0
    outer loop
      vertex 8.6987 9.66088 4.5
      vertex 10.5172 7.64121 -5
      vertex 10.5172 7.64121 4.5
    endloop
  endfacet
  facet normal 0.86602 -0.500009 0
    outer loop
      vertex -11.8761 5.28758 4.5
      vertex -10.5172 7.64121 -5
      vertex -10.5172 7.64121 4.5
    endloop
  endfacet
  facet normal 0.86602 -0.500009 0
    outer loop
      vertex -10.5172 7.64121 -5
      vertex -11.8761 5.28758 4.5
      vertex -11.8761 5.28758 -5
    endloop
  endfacet
  facet normal -0.587778 0.809022 0
    outer loop
      vertex 8.6987 -9.66088 -5
      vertex 6.5 -11.2583 4.5
      vertex 8.6987 -9.66088 4.5
    endloop
  endfacet
  facet normal -0.587778 0.809022 0
    outer loop
      vertex 6.5 -11.2583 4.5
      vertex 8.6987 -9.66088 -5
      vertex 6.5 -11.2583 -5
    endloop
  endfacet
  facet normal 0 -1 0
    outer loop
      vertex -1.35887 12.9288 -5
      vertex 1.35887 12.9288 4.5
      vertex -1.35887 12.9288 4.5
    endloop
  endfacet
  facet normal 0 -1 -0
    outer loop
      vertex 1.35887 12.9288 4.5
      vertex -1.35887 12.9288 -5
      vertex 1.35887 12.9288 -5
    endloop
  endfacet
  facet normal 0.587778 0.809022 -0
    outer loop
      vertex -6.5 -11.2583 -5
      vertex -8.6987 -9.66088 4.5
      vertex -6.5 -11.2583 4.5
    endloop
  endfacet
  facet normal 0.587778 0.809022 0
    outer loop
      vertex -8.6987 -9.66088 4.5
      vertex -6.5 -11.2583 -5
      vertex -8.6987 -9.66088 -5
    endloop
  endfacet
endsolid OpenSCAD_Model
