solid OpenSCAD_Model
  facet normal -0 0 1
    outer loop
      vertex 0 60 75
      vertex 90 0 75
      vertex 90 60 75
    endloop
  endfacet
  facet normal 0 0 1
    outer loop
      vertex 90 0 75
      vertex 0 60 75
      vertex 0 0 75
    endloop
  endfacet
  facet normal 0 0 -1
    outer loop
      vertex 0 0 0
      vertex 90 60 0
      vertex 90 0 0
    endloop
  endfacet
  facet normal -0 0 -1
    outer loop
      vertex 90 60 0
      vertex 0 0 0
      vertex 0 60 0
    endloop
  endfacet
  facet normal 0 -1 0
    outer loop
      vertex 0 0 0
      vertex 90 0 75
      vertex 0 0 75
    endloop
  endfacet
  facet normal 0 -1 -0
    outer loop
      vertex 90 0 75
      vertex 0 0 0
      vertex 90 0 0
    endloop
  endfacet
  facet normal 1 -0 0
    outer loop
      vertex 90 0 75
      vertex 90 60 0
      vertex 90 60 75
    endloop
  endfacet
  facet normal 1 0 0
    outer loop
      vertex 90 60 0
      vertex 90 0 75
      vertex 90 0 0
    endloop
  endfacet
  facet normal 0 1 -0
    outer loop
      vertex 90 60 0
      vertex 0 60 75
      vertex 90 60 75
    endloop
  endfacet
  facet normal 0 1 0
    outer loop
      vertex 0 60 75
      vertex 90 60 0
      vertex 0 60 0
    endloop
  endfacet
  facet normal -1 0 0
    outer loop
      vertex 0 0 0
      vertex 0 60 75
      vertex 0 60 0
    endloop
  endfacet
  facet normal -1 -0 0
    outer loop
      vertex 0 60 75
      vertex 0 0 0
      vertex 0 0 75
    endloop
  endfacet
endsolid OpenSCAD_Model
